<svg width="500" height="501" viewBox="0 0 500 501" fill="none" xmlns="http://www.w3.org/2000/svg">
<path d="M401 501C395.996 500.989 391.2 498.984 387.662 495.423C384.122 491.863 382.13 487.036 382.119 482.001V426.655C382.119 421.617 380.13 416.784 376.589 413.221C373.049 409.659 368.246 407.656 363.238 407.656C358.231 407.656 353.429 409.659 349.888 413.221C346.347 416.784 344.359 421.617 344.359 426.655V452.928C344.359 457.967 342.369 462.8 338.828 466.363C335.287 469.926 330.485 471.928 325.478 471.928C320.47 471.928 315.667 469.926 312.127 466.363C308.586 462.8 306.597 457.967 306.597 452.928V426.655C306.597 421.617 304.607 416.784 301.067 413.221C297.526 409.659 292.723 407.656 287.716 407.656C282.709 407.656 277.906 409.659 274.365 413.221C270.824 416.784 268.835 421.617 268.835 426.655V433.805C268.835 438.848 266.845 443.684 263.301 447.25C259.757 450.816 254.951 452.819 249.94 452.819C244.929 452.819 240.123 450.816 236.58 447.25C233.036 443.684 231.046 438.848 231.046 433.805V426.655C231.046 421.617 229.056 416.784 225.515 413.221C221.974 409.659 217.172 407.656 212.165 407.656C207.157 407.656 202.355 409.659 198.814 413.221C195.273 416.784 193.284 421.617 193.284 426.655V452.928C193.284 457.967 191.295 462.8 187.754 466.363C184.213 469.926 179.411 471.928 174.403 471.928C169.396 471.928 164.594 469.926 161.053 466.363C157.512 462.8 155.523 457.967 155.523 452.928V426.655C155.523 421.617 153.533 416.784 149.993 413.221C146.452 409.659 141.649 407.656 136.642 407.656C131.634 407.656 126.832 409.659 123.291 413.221C119.751 416.784 117.761 421.617 117.761 426.655V482.001C117.761 487.039 115.772 491.872 112.231 495.435C108.691 498.998 103.888 501 98.8806 501C93.8732 501 89.0708 498.998 85.53 495.435C81.9892 491.872 80 487.039 80 482.001V168.305C80.9112 129.374 94.9739 91.9172 119.871 62.1053C144.769 32.2934 179.016 11.9051 216.969 4.29974C254.922 -3.30566 294.318 2.32552 328.666 20.2655C363.013 38.2054 390.263 67.3839 405.926 102.993C414.998 123.586 419.922 145.785 420.414 168.305C420.446 168.538 420.411 168.777 420.313 168.991C420.215 169.205 420.057 169.387 419.86 169.515V481.988C419.855 487.023 417.868 491.852 414.333 495.415C410.798 498.979 406.003 500.987 401 501ZM230.836 218.157C226.041 218.157 224.097 220.023 224.097 224.637C224.097 235.851 236.41 244.97 251.568 244.97C266.726 244.97 278.998 235.851 278.998 224.637C278.998 220.032 277.052 218.165 272.271 218.165C269.713 218.256 267.164 218.517 264.64 218.946L264.402 218.987C260.16 219.687 255.871 220.081 251.572 220.164C247.262 220.081 242.963 219.688 238.709 218.987C236.106 218.529 233.476 218.252 230.836 218.157ZM313.024 125.841C296.311 125.841 282.724 141.5 282.724 160.755C282.724 180.01 296.311 195.639 313.024 195.639C329.737 195.639 343.274 179.989 343.274 160.755C343.274 141.52 329.709 125.841 313.024 125.841ZM187.406 125.841C170.734 125.841 157.156 141.5 157.156 160.755C157.156 180.01 170.734 195.639 187.406 195.639C204.079 195.639 217.665 179.989 217.665 160.755C217.665 141.52 204.091 125.841 187.406 125.841Z" fill="white"/>
</svg>
