<svg width="500" height="500" viewBox="0 0 500 500" fill="none" xmlns="http://www.w3.org/2000/svg">
<path d="M370.8 432C366.797 431.991 362.96 430.387 360.129 427.539C357.298 424.69 355.704 420.829 355.695 416.801V372.524C355.695 368.494 354.104 364.627 351.271 361.777C348.439 358.927 344.597 357.325 340.591 357.325C336.585 357.325 332.743 358.927 329.911 361.777C327.077 364.627 325.487 368.494 325.487 372.524V393.542C325.487 397.574 323.895 401.44 321.062 404.29C318.23 407.14 314.388 408.742 310.382 408.742C306.376 408.742 302.534 407.14 299.701 404.29C296.869 401.44 295.277 397.574 295.277 393.542V372.524C295.277 368.494 293.686 364.627 290.854 361.777C288.02 358.927 284.179 357.325 280.173 357.325C276.167 357.325 272.325 358.927 269.492 361.777C266.66 364.627 265.068 368.494 265.068 372.524V378.244C265.068 382.278 263.476 386.147 260.641 389C257.806 391.853 253.961 393.455 249.952 393.455C245.943 393.455 242.099 391.853 239.264 389C236.429 386.147 234.837 382.278 234.837 378.244V372.524C234.837 368.494 233.245 364.627 230.412 361.777C227.58 358.927 223.738 357.325 219.732 357.325C215.726 357.325 211.884 358.927 209.051 361.777C206.219 364.627 204.627 368.494 204.627 372.524V393.542C204.627 397.574 203.036 401.44 200.203 404.29C197.37 407.14 193.529 408.742 189.523 408.742C185.517 408.742 181.675 407.14 178.842 404.29C176.009 401.44 174.418 397.574 174.418 393.542V372.524C174.418 368.494 172.827 364.627 169.994 361.777C167.161 358.927 163.32 357.325 159.314 357.325C155.308 357.325 151.466 358.927 148.633 361.777C145.8 364.627 144.209 368.494 144.209 372.524V416.801C144.209 420.831 142.618 424.698 139.785 427.548C136.952 430.398 133.11 432 129.105 432C125.099 432 121.257 430.398 118.424 427.548C115.591 424.698 114 420.831 114 416.801V165.844C114.729 134.7 125.979 104.734 145.897 80.8842C165.815 57.0347 193.212 40.7241 223.575 34.6398C253.938 28.5555 285.454 33.0604 312.933 47.4124C340.41 61.7643 362.21 85.1072 374.74 113.595C381.998 130.069 385.938 147.828 386.331 165.844C386.357 166.031 386.329 166.221 386.25 166.393C386.172 166.564 386.046 166.71 385.888 166.812V416.791C385.884 420.819 384.294 424.682 381.466 427.532C378.638 430.383 374.803 431.99 370.8 432ZM234.669 205.726C230.833 205.726 229.277 207.219 229.277 210.91C229.277 219.881 239.128 227.176 251.254 227.176C263.38 227.176 273.198 219.881 273.198 210.91C273.198 207.226 271.642 205.732 267.817 205.732C265.77 205.805 263.731 206.014 261.712 206.357L261.522 206.39C258.128 206.95 254.697 207.265 251.258 207.331C247.809 207.265 244.37 206.951 240.967 206.39C238.885 206.023 236.78 205.802 234.669 205.726ZM300.42 131.873C287.049 131.873 276.18 144.4 276.18 159.804C276.18 175.208 287.049 187.711 300.42 187.711C313.79 187.711 324.62 175.191 324.62 159.804C324.62 144.416 313.767 131.873 300.42 131.873ZM199.925 131.873C186.587 131.873 175.725 144.4 175.725 159.804C175.725 175.208 186.587 187.711 199.925 187.711C213.263 187.711 224.132 175.191 224.132 159.804C224.132 144.416 213.273 131.873 199.925 131.873Z" fill="white"/>
</svg>
