<svg width="500" height="500" viewBox="0 0 500 500" fill="none" xmlns="http://www.w3.org/2000/svg">
<path d="M382.768 257.414L256.192 42.5173C255.579 41.4561 254.691 40.5722 253.618 39.9547C252.546 39.3372 251.326 39.0079 250.082 39.0001C248.839 38.9924 247.615 39.3063 246.534 39.9103C245.453 40.5143 244.554 41.3871 243.928 42.4404L206.02 106.833C204.778 108.941 204.125 111.332 204.125 113.765C204.125 116.2 204.778 118.59 206.02 120.698L288.556 260.89C289.799 263.001 291.586 264.752 293.74 265.969C295.893 267.187 298.334 267.825 300.82 267.823H376.638C377.878 267.82 379.096 267.497 380.17 266.887C381.244 266.278 382.136 265.401 382.758 264.347C383.379 263.294 383.705 262.1 383.708 260.882C383.71 259.665 383.385 258.47 382.768 257.414Z" fill="#363FF9"/>
<path d="M50.976 369.733L177.553 154.835C178.174 153.783 179.067 152.909 180.141 152.301C181.216 151.693 182.434 151.374 183.675 151.374C184.915 151.374 186.134 151.693 187.209 152.301C188.283 152.909 189.176 153.783 189.797 154.835L227.725 219.17C228.966 221.282 229.62 223.675 229.62 226.113C229.62 228.55 228.966 230.943 227.725 233.055L145.189 373.246C143.951 375.357 142.167 377.108 140.017 378.327C137.867 379.543 135.427 380.183 132.944 380.179H57.108C55.8587 380.186 54.6301 379.867 53.5471 379.256C52.4641 378.647 51.5654 377.766 50.9423 376.705C50.3193 375.643 49.9941 374.439 50.0001 373.214C50.006 371.989 50.3427 370.788 50.976 369.733Z" fill="#363FF9"/>
<path d="M189.78 380.127H442.933C444.175 380.127 445.395 379.804 446.471 379.195C447.545 378.585 448.437 377.708 449.056 376.653C449.675 375.599 450.001 374.402 450 373.185C449.998 371.967 449.669 370.771 449.046 369.718L411.177 305.346C409.933 303.235 408.146 301.484 405.994 300.267C403.841 299.049 401.398 298.411 398.914 298.413H233.84C231.355 298.411 228.912 299.049 226.761 300.267C224.608 301.484 222.818 303.235 221.576 305.346L183.668 369.718C183.045 370.771 182.717 371.967 182.715 373.185C182.713 374.402 183.038 375.599 183.658 376.653C184.277 377.708 185.169 378.585 186.244 379.195C187.319 379.804 188.538 380.127 189.78 380.127Z" fill="#363FF9"/>
</svg>
