<svg width="500" height="500" viewBox="0 0 500 500" fill="none" xmlns="http://www.w3.org/2000/svg">
  <path
    d="M340.212 194.822L399.264 320.515C399.547 321.166 399.629 321.886 399.501 322.584C399.372 323.282 399.038 323.925 398.541 324.432L243.199 474.53C242.951 474.765 242.638 474.921 242.301 474.978C241.964 475.034 241.617 474.99 241.305 474.849C240.994 474.709 240.731 474.479 240.55 474.188C240.369 473.898 240.279 473.56 240.291 473.219V335.327L338.178 240.833C338.517 240.52 338.783 240.136 338.959 239.709C339.135 239.283 339.215 238.823 339.195 238.362L339.481 194.822C339.481 194.528 340.101 194.528 340.212 194.822Z"
    fill="#6000FF" />
  <path fill-rule="evenodd" clip-rule="evenodd"
    d="M240.294 335.294V473.194C240.284 473.535 240.375 473.871 240.556 474.16C240.737 474.449 241.001 474.68 241.313 474.819C241.624 474.959 241.97 475.001 242.306 474.944C242.643 474.887 242.954 474.732 243.202 474.497L398.538 324.41C399.037 323.906 399.374 323.264 399.504 322.567C399.634 321.87 399.55 321.149 399.267 320.499L338.617 240.333L240.294 335.294Z"
    fill="url(#paint0_linear_654_25)" />
  <path fill-rule="evenodd" clip-rule="evenodd"
    d="M339.798 194.438C339.753 194.436 339.709 194.445 339.666 194.462C339.624 194.478 339.583 194.503 339.55 194.535C339.517 194.567 339.494 194.605 339.476 194.648C339.459 194.69 339.448 194.734 339.449 194.78L339.205 238.32C339.22 239.036 339.021 239.744 338.638 240.349L399.527 322.525C399.647 321.783 399.543 321.024 399.232 320.34L340.183 194.648C340.146 194.588 340.092 194.535 340.031 194.5C339.97 194.466 339.904 194.447 339.833 194.446L339.798 194.438Z"
    fill="url(#paint1_linear_654_25)" />
  <path fill-rule="evenodd" clip-rule="evenodd"
    d="M399.503 322.478C399.624 321.739 399.525 320.981 399.212 320.301L396.159 313.767L341.184 243.779L399.503 322.478Z"
    fill="url(#paint2_linear_654_25)" />
  <path
    d="M200.582 89.2868L172.769 167.959C172.455 168.862 172.506 169.851 172.912 170.717L198.81 221.663L127.536 262.017C127.11 262.238 126.615 262.287 126.155 262.152C125.694 262.017 125.304 261.71 125.064 261.293L109.648 229.213C109.369 228.686 109.249 228.09 109.301 227.496C109.353 226.903 109.576 226.337 109.942 225.867L199.827 88.8418C199.895 88.7624 199.989 88.7095 200.092 88.6923C200.195 88.6752 200.301 88.6948 200.391 88.7479C200.481 88.801 200.55 88.8841 200.585 88.9827C200.62 89.0812 200.619 89.1889 200.582 89.2868Z"
    fill="#6000FF" />
  <path fill-rule="evenodd" clip-rule="evenodd"
    d="M200.152 88.7336C200.101 88.732 200.049 88.7416 200.001 88.7608C199.953 88.7799 199.911 88.8094 199.875 88.8462L113.827 220.013L113.732 220.188L172.824 167.956L173.006 167.429V167.382L200.589 89.2885C200.61 89.222 200.615 89.1513 200.603 89.0828C200.59 89.0144 200.56 88.9514 200.517 88.8966C200.474 88.8418 200.42 88.797 200.356 88.7685C200.293 88.7401 200.222 88.7292 200.152 88.7336Z"
    fill="url(#paint3_linear_654_25)" />
  <path fill-rule="evenodd" clip-rule="evenodd"
    d="M109.974 225.895C109.61 226.363 109.39 226.926 109.339 227.517C109.289 228.108 109.41 228.701 109.689 229.224L125.097 261.314C125.339 261.729 125.731 262.034 126.193 262.167C126.655 262.301 127.151 262.25 127.576 262.028L198.843 221.681L172.952 170.734C172.747 170.305 172.629 169.842 172.605 169.368C172.58 168.893 172.649 168.419 172.808 167.971L109.974 225.895Z"
    fill="url(#paint4_linear_654_25)" />
  <path fill-rule="evenodd" clip-rule="evenodd"
    d="M240.292 25.7064V148.085C240.274 148.823 240.02 149.538 239.568 150.122L100.668 338.387C100.167 339.055 99.9349 339.884 100.016 340.715C100.097 341.546 100.486 342.317 101.106 342.876L198.548 436.941C198.744 437.144 198.989 437.293 199.258 437.375C199.528 437.458 199.814 437.472 200.091 437.414C200.367 437.356 200.624 437.23 200.838 437.046C201.052 436.861 201.215 436.624 201.313 436.359L307.195 188.583C307.49 187.736 307.49 186.814 307.195 185.968L241.603 25.4425C241.563 25.3181 241.484 25.213 241.378 25.136C241.273 25.0589 241.146 25.016 241.016 25.0157C240.829 25.0135 240.648 25.0843 240.513 25.2136C240.378 25.3428 240.298 25.5195 240.292 25.7064Z"
    fill="url(#paint5_linear_654_25)" />
  <path fill-rule="evenodd" clip-rule="evenodd"
    d="M240.973 25C240.782 25 240.6 25.0756 240.464 25.2095C240.329 25.3434 240.253 25.5236 240.251 25.714L240.298 148.093C240.288 148.436 240.226 148.776 240.115 149.101L306.335 183.973L241.561 25.4423C241.521 25.3162 241.445 25.2078 241.339 25.128C241.234 25.0483 241.105 25.0038 240.973 25Z"
    fill="url(#paint6_linear_654_25)" />
  <path fill-rule="evenodd" clip-rule="evenodd"
    d="M307.416 187.318C307.417 186.886 307.348 186.455 307.21 186.045L306.366 183.981L240.1 149.109L252.813 156.365L307.416 187.318Z"
    fill="url(#paint7_linear_654_25)" />
  <path d="M113.678 220.233L110.022 225.796L172.801 167.952L113.678 220.233Z" fill="#B46CF3" />
  <defs>
    <linearGradient id="paint0_linear_654_25" x1="328.529" y1="376.422" x2="243.827" y2="356.836"
      gradientUnits="userSpaceOnUse">
      <stop stop-color="#6000FF" />
      <stop offset="0.651" stop-color="#4900C3" />
      <stop offset="1" stop-color="#320086" />
    </linearGradient>
    <linearGradient id="paint1_linear_654_25" x1="342.294" y1="183.294" x2="404.263" y2="234.506"
      gradientUnits="userSpaceOnUse">
      <stop stop-color="#6A0AFF" />
      <stop offset="0.047" stop-color="#892AFF" />
      <stop offset="0.102" stop-color="#6A0AFF" />
      <stop offset="0.902" stop-color="#A94AFF" />
      <stop offset="1" stop-color="#A94AFF" />
    </linearGradient>
    <linearGradient id="paint2_linear_654_25" x1="343.285" y1="244.015" x2="415.244" y2="298.454"
      gradientUnits="userSpaceOnUse">
      <stop stop-color="#9335FE" />
      <stop offset="0.031" stop-color="#A954FE" />
      <stop offset="1" stop-color="#BF73FF" />
    </linearGradient>
    <linearGradient id="paint3_linear_654_25" x1="206.778" y1="96.8829" x2="88.2252" y2="176.116"
      gradientUnits="userSpaceOnUse">
      <stop stop-color="#6A0AFF" />
      <stop offset="0.51" stop-color="#8C2DFF" />
      <stop offset="0.969" stop-color="#AF50FF" />
      <stop offset="1" stop-color="#AF50FF" />
    </linearGradient>
    <linearGradient id="paint4_linear_654_25" x1="149.431" y1="195.969" x2="158.335" y2="243.227"
      gradientUnits="userSpaceOnUse">
      <stop stop-color="#6000FF" />
      <stop offset="1" stop-color="#3E00A5" />
    </linearGradient>
    <linearGradient id="paint5_linear_654_25" x1="-9.72307" y1="465.908" x2="330.656" y2="443.837"
      gradientUnits="userSpaceOnUse">
      <stop stop-color="#9838FF" />
      <stop offset="0.322" stop-color="#AF50FF" />
      <stop offset="1" stop-color="#6000FF" />
    </linearGradient>
    <linearGradient id="paint6_linear_654_25" x1="232.756" y1="68.5586" x2="341.1" y2="112.179"
      gradientUnits="userSpaceOnUse">
      <stop stop-color="#6F0FFF" />
      <stop offset="0.702" stop-color="#A94AFF" />
      <stop offset="1" stop-color="#A94AFF" />
    </linearGradient>
    <linearGradient id="paint7_linear_654_25" x1="241.109" y1="149.377" x2="273.466" y2="204.681"
      gradientUnits="userSpaceOnUse">
      <stop stop-color="#AE60FF" />
      <stop offset="0.031" stop-color="#B669FF" />
      <stop offset="1" stop-color="#BF73FF" />
    </linearGradient>
  </defs>
</svg>