<svg width="500" height="500" viewBox="0 0 500 500" fill="none" xmlns="http://www.w3.org/2000/svg">
<path d="M365.092 210.113C371.591 196.936 376.125 180.407 376.125 159.837C376.125 131.618 364.859 106.074 344.399 87.9062C324.212 69.9797 296.899 60.5062 265.415 60.5062L156.92 60C135.978 60 119 77.0024 119 97.9743V420H308.799C379.671 420 421.097 360.797 421.097 307.395C421.097 266.826 398.606 229.703 365.1 210.113H365.092ZM265.406 88.2758C316.34 88.2758 348.395 118.85 348.395 159.837C348.395 214.846 307.001 240.004 265.118 240.004C225.77 240.004 193.363 207.55 193.363 157.25V129.48C193.363 111.248 182.475 94.8807 165.625 89.4891V88.2758H265.399H265.406Z" fill="#FF4E17"/>
</svg>
