<svg width="500" height="500" viewBox="0 0 500 500" fill="none" xmlns="http://www.w3.org/2000/svg">
<path d="M381.794 208.491C390.821 190.189 397.118 167.232 397.118 138.663C397.118 99.469 381.471 63.9913 353.054 38.7586C325.017 13.8607 287.082 0.703082 243.354 0.703082L92.6661 0C63.5804 0 40 23.6145 40 52.742V500H303.609C402.043 500 459.579 417.773 459.579 343.604C459.579 287.258 428.342 235.698 381.805 208.491H381.794ZM243.342 39.272C314.084 39.272 358.604 81.7357 358.604 138.663C358.604 215.064 301.113 250.006 242.941 250.006C188.291 250.006 143.282 204.93 143.282 135.069V96.5003C143.282 71.1783 128.159 48.4455 104.757 40.9571V39.272H243.332H243.342Z" fill="#FF4E17"/>
</svg>
