<svg width="500" height="500" viewBox="0 0 500 500" fill="none" xmlns="http://www.w3.org/2000/svg">
  <path fill-rule="evenodd" clip-rule="evenodd"
    d="M249.7 124.551C304.668 96.7587 368.592 77.3235 415.275 74.2408C416.932 74.1445 419.789 74.0241 421.638 74.0241L425 74L421.758 75.1801C418.228 76.4565 386.506 87.8238 383.577 88.8593L381.775 89.5096L387.538 89.6541C390.709 89.7504 394.815 89.9912 396.664 90.208C400.986 90.7137 405.981 91.5807 405.741 91.7975C405.645 91.8938 403.603 92.7608 401.226 93.7242C366.767 107.668 330.675 126.188 299.048 146.177C275.756 160.892 251.549 178.473 232.099 194.802C201.097 220.812 180.013 245.352 170.023 267.003C165.653 276.516 163.252 285.113 162.147 295.301C161.715 299.323 161.762 308.21 162.267 311.991C164.236 327.163 170.384 338.699 180.661 346.454C189.09 352.836 199.512 356.521 212.432 357.701C216.802 358.11 226.335 357.845 231.09 357.195C243.985 355.46 256.736 351.198 267.711 344.96C270.712 343.251 277.58 338.626 279.91 336.748L280.428 336.328C281.231 335.674 281.637 335.343 281.778 335.432C281.921 335.523 281.789 336.05 281.522 337.116L281.35 337.808C280.774 340.216 279.141 345.081 278.013 347.754C277.437 349.151 276.98 350.331 277.028 350.379C277.076 350.428 278.349 350.09 279.862 349.632C297.344 344.31 323.662 331.45 338.311 321.094C339.608 320.155 340.736 319.432 340.76 319.481C340.808 319.529 340.568 320.516 340.232 321.696C339.128 325.549 335.981 331.45 333.34 334.604C332.139 336.049 332.5 336.074 334.925 334.821C337.134 333.665 339.559 331.98 341.289 330.342L342.585 329.138L340.952 331.787C334.733 341.926 327.72 351.391 319.003 361.409C315.642 365.263 303.779 377.136 299.889 380.555C286.369 392.332 271.505 402.496 257.505 409.479C244.946 415.741 226.6 421.04 208.878 423.52C179.197 427.662 152.493 424.315 130.497 413.646C125.742 411.334 123.269 409.937 118.706 406.927C92.8676 389.876 77.643 362.059 75.2177 327.452C74.6654 319.456 75.1937 307.15 76.4664 298.191C82.902 252.939 110.35 213.37 164.572 171.152C177.276 161.278 201.794 143.601 201.794 144.347C201.794 144.492 201.241 146.972 200.593 149.862C199.921 152.752 199.392 155.232 199.392 155.402C199.392 155.546 199.656 155.45 199.968 155.209C214.016 144.251 228.953 135.051 249.7 124.551Z"
    fill="#E0E1E0" />
</svg>