<svg width="500" height="501" viewBox="0 0 500 501" fill="none" xmlns="http://www.w3.org/2000/svg">
<path d="M83.0697 118.974C87.7874 110.265 94.596 102.841 102.895 97.3557L242.169 1L99.4657 234.786C99.4657 234.786 86.997 213.91 82.1343 203.347C76.0746 190.066 73.0185 175.632 73.1799 161.058C73.3415 146.484 76.7172 132.12 83.0697 118.974ZM25.5894 280.246C27.1619 302.603 33.5375 324.369 44.2892 344.086C55.041 363.806 69.9207 381.018 87.9323 394.576L241.981 501C241.981 501 145.599 363.384 64.3044 226.448C56.0739 211.981 50.5411 196.163 47.9705 179.753C46.8325 172.322 46.8325 164.762 47.9705 157.331C45.8507 161.223 41.7361 169.191 41.7361 169.191C33.4931 185.846 27.8793 203.656 25.0906 222.001C23.4855 241.392 23.6524 260.885 25.5894 280.246ZM418.35 298.776C413.361 288.214 401.018 267.336 401.018 267.336L258.565 501L397.838 404.706C406.138 399.22 412.946 391.797 417.664 383.089C424.017 369.942 427.391 355.577 427.554 341.005C427.716 326.43 424.659 311.996 418.599 298.715L418.35 298.776ZM474.894 221.815C473.321 199.46 466.945 177.692 456.195 157.975C445.442 138.257 430.563 121.043 412.551 107.486L258.751 1C258.751 1 355.071 138.616 436.429 275.552C444.637 290.024 450.148 305.841 452.7 322.247C453.838 329.678 453.838 337.238 452.7 344.669C454.82 340.777 458.934 332.809 458.934 332.809C467.177 316.154 472.792 298.344 475.58 279.999C477.206 260.61 477.06 241.116 475.145 221.754L474.894 221.815Z" fill="#5298FF"/>
</svg>
