<svg width="500" height="500" viewBox="0 0 500 500" fill="none" xmlns="http://www.w3.org/2000/svg">
<path d="M99.1627 131.177C103.409 123.339 109.536 116.657 117.005 111.72L242.352 25L113.919 235.407C113.919 235.407 102.697 216.619 98.3209 207.112C92.8671 195.159 90.1166 182.169 90.2619 169.052C90.4074 155.936 93.4454 143.008 99.1627 131.177ZM47.4304 276.322C48.8457 296.443 54.5837 316.032 64.2603 333.778C73.9369 351.525 87.3287 367.016 103.539 379.219L242.183 475C242.183 475 155.439 351.146 82.274 227.903C74.8666 214.883 69.887 200.647 67.5734 185.878C66.5493 179.19 66.5493 172.386 67.5734 165.698C65.6657 169.201 61.9625 176.371 61.9625 176.371C54.5438 191.362 49.4913 207.391 46.9816 223.901C45.537 241.352 45.6872 258.897 47.4304 276.322ZM400.915 292.998C396.424 283.492 385.316 264.702 385.316 264.702L257.109 475L382.454 388.335C389.924 383.398 396.051 376.717 400.297 368.88C406.015 357.047 409.052 344.12 409.199 331.005C409.344 317.887 406.593 304.896 401.139 292.943L400.915 292.998ZM451.805 223.734C450.389 203.614 444.651 184.023 434.976 166.278C425.298 148.531 411.906 133.039 395.696 120.837L257.276 25C257.276 25 343.964 148.854 417.186 272.097C424.574 285.121 429.533 299.357 431.83 314.122C432.855 320.81 432.855 327.614 431.83 334.302C433.738 330.799 437.441 323.629 437.441 323.629C444.86 308.638 449.913 292.609 452.422 276.099C453.885 258.649 453.754 241.104 452.03 223.678L451.805 223.734Z" fill="#5298FF"/>
</svg>
