<svg width="500" height="500" viewBox="0 0 500 500" fill="none" xmlns="http://www.w3.org/2000/svg">
<path d="M170.543 372.927L249.733 241.608L328.923 372.927L249.733 419.785L170.543 372.927Z" fill="#F79D22"/>
<path d="M249.733 189.061C295.06 189.061 331.805 152.315 331.805 106.988C331.805 61.661 295.06 24.916 249.733 24.916C204.405 24.916 167.661 61.661 167.661 106.988C167.661 152.315 204.405 189.061 249.733 189.061Z" fill="#F79D22"/>
<path d="M249.732 90.814C211.311 90.815 173.74 102.123 141.701 123.329C109.662 144.536 84.573 174.703 69.5606 210.069C54.5481 245.437 50.2761 284.44 57.277 322.217C64.278 359.996 82.2423 394.878 108.931 422.516L249.732 189.061L390.514 422.516C417.21 394.882 435.182 360.001 442.189 322.222C449.195 284.443 444.926 245.437 429.916 210.066C414.904 174.697 389.812 144.528 357.772 123.322C325.73 102.116 288.155 90.81 249.732 90.814ZM109.234 310.786C105.614 310.786 102.075 309.712 99.0658 307.7C96.056 305.689 93.7105 302.83 92.326 299.485C90.9415 296.14 90.5803 292.46 91.2879 288.909C91.9956 285.359 93.7402 282.098 96.3014 279.54C98.8625 276.982 102.125 275.241 105.676 274.536C109.227 273.832 112.907 274.197 116.25 275.585C119.594 276.973 122.45 279.321 124.459 282.334C126.467 285.345 127.537 288.886 127.534 292.505C127.541 294.913 127.073 297.299 126.157 299.526C125.241 301.752 123.894 303.776 122.194 305.482C120.494 307.187 118.474 308.54 116.25 309.464C114.026 310.387 111.642 310.862 109.234 310.862V310.786ZM154.139 237.55C150.524 237.55 146.989 236.478 143.983 234.469C140.977 232.461 138.633 229.606 137.25 226.265C135.866 222.925 135.504 219.25 136.21 215.704C136.915 212.158 138.656 208.9 141.213 206.343C143.769 203.787 147.027 202.046 150.573 201.341C154.119 200.636 157.794 200.997 161.134 202.381C164.475 203.765 167.33 206.108 169.338 209.114C171.347 212.12 172.419 215.655 172.419 219.27C172.43 221.677 171.963 224.062 171.05 226.288C170.135 228.515 168.791 230.54 167.092 232.245C165.394 233.95 163.375 235.304 161.152 236.227C158.929 237.151 156.546 237.626 154.139 237.626V237.55ZM345.382 237.55C341.766 237.55 338.231 236.478 335.225 234.469C332.22 232.461 329.876 229.606 328.493 226.265C327.109 222.925 326.747 219.25 327.452 215.704C328.158 212.158 329.898 208.9 332.456 206.343C335.012 203.787 338.269 202.046 341.815 201.341C345.362 200.636 349.037 200.997 352.378 202.381C355.717 203.765 358.573 206.108 360.581 209.114C362.59 212.12 363.662 215.655 363.662 219.27C363.669 221.676 363.202 224.06 362.288 226.286C361.372 228.511 360.027 230.534 358.329 232.239C356.631 233.945 354.614 235.298 352.392 236.223C350.171 237.146 347.788 237.624 345.382 237.626V237.55ZM390.267 310.786C386.646 310.79 383.106 309.719 380.093 307.71C377.082 305.701 374.733 302.842 373.346 299.498C371.958 296.153 371.594 292.473 372.3 288.921C373.005 285.369 374.749 282.107 377.309 279.547C379.869 276.986 383.132 275.243 386.683 274.537C390.235 273.832 393.915 274.196 397.26 275.584C400.604 276.971 403.462 279.32 405.472 282.332C407.481 285.343 408.552 288.885 408.548 292.505C408.557 294.912 408.092 297.297 407.178 299.524C406.264 301.751 404.919 303.775 403.22 305.48C401.522 307.186 399.504 308.54 397.281 309.463C395.058 310.387 392.675 310.862 390.267 310.862V310.786Z" fill="#F79D22"/>
<path d="M172.344 36.5608C168.729 36.5608 165.195 35.4886 162.189 33.48C159.182 31.4713 156.84 28.6162 155.455 25.2759C154.072 21.9356 153.711 18.2601 154.416 14.7141C155.121 11.168 156.862 7.91086 159.418 5.3543C161.975 2.79773 165.232 1.05661 168.778 0.351255C172.324 -0.354099 176 0.00793842 179.34 1.39154C182.681 2.77514 185.536 5.11826 187.544 8.12445C189.553 11.1307 190.625 14.665 190.625 18.2806C190.627 20.6819 190.157 23.06 189.239 25.279C188.321 27.498 186.975 29.5141 185.276 31.2121C183.579 32.9101 181.562 34.2566 179.343 35.1744C177.124 36.0922 174.746 36.5633 172.344 36.5608Z" fill="#F79D22"/>
<path d="M327.083 36.5608C323.468 36.557 319.936 35.4819 316.932 33.471C313.929 31.46 311.588 28.6036 310.207 25.263C308.827 21.9224 308.467 18.2473 309.175 14.7025C309.882 11.1577 311.625 7.90225 314.182 5.34758C316.74 2.79292 319.997 1.05368 323.543 0.34986C327.088 -0.35396 330.763 0.00922776 334.102 1.39338C337.441 2.77754 340.295 5.12051 342.303 8.12631C344.311 11.1321 345.382 14.6658 345.382 18.2806C345.382 20.6828 344.908 23.0613 343.989 25.2804C343.069 27.4995 341.721 29.5155 340.022 31.2133C338.322 32.911 336.304 34.2573 334.084 35.1749C331.864 36.0924 329.485 36.5632 327.083 36.5608Z" fill="#F79D22"/>
<path d="M170.637 401.487L249.732 449.027V500L170.637 401.487Z" fill="#F79D22"/>
<path d="M328.828 401.487L249.733 449.027V500L328.828 401.487Z" fill="#F79D22"/>
</svg>
