<svg width="500" height="500" viewBox="0 0 500 500" fill="none" xmlns="http://www.w3.org/2000/svg">
<path d="M186.234 348.342L249.586 243.286L312.938 348.342L249.586 385.828L186.234 348.342Z" fill="#F79D22"/>
<path d="M249.586 201.249C285.848 201.249 315.244 171.852 315.244 135.59C315.244 99.3289 285.848 69.9329 249.586 69.9329C213.324 69.9329 183.929 99.3289 183.929 135.59C183.929 171.852 213.324 201.249 249.586 201.249Z" fill="#F79D22"/>
<path d="M249.586 122.651C218.848 122.652 188.792 131.699 163.161 148.663C137.53 165.629 117.458 189.762 105.448 218.055C93.4384 246.349 90.0209 277.552 95.6216 307.774C101.222 337.997 115.594 365.902 136.945 388.013L249.586 201.249L362.211 388.013C383.568 365.906 397.946 338.001 403.551 307.778C409.156 277.554 405.741 246.349 393.732 218.053C381.723 189.758 361.65 165.622 336.017 148.658C310.384 131.693 280.324 122.648 249.586 122.651ZM137.187 298.629C134.291 298.629 131.46 297.77 129.053 296.16C126.645 294.551 124.768 292.264 123.661 289.588C122.553 286.912 122.264 283.968 122.83 281.127C123.396 278.287 124.792 275.679 126.841 273.632C128.89 271.585 131.5 270.192 134.341 269.629C137.181 269.066 140.125 269.358 142.8 270.468C145.475 271.579 147.76 273.457 149.367 275.867C150.974 278.276 151.83 281.109 151.827 284.004C151.833 285.931 151.459 287.839 150.726 289.621C149.993 291.402 148.915 293.021 147.555 294.386C146.195 295.75 144.579 296.832 142.8 297.571C141.021 298.309 139.114 298.689 137.187 298.689V298.629ZM173.112 240.04C170.219 240.04 167.391 239.183 164.986 237.575C162.581 235.968 160.707 233.684 159.6 231.012C158.493 228.34 158.203 225.4 158.768 222.563C159.332 219.726 160.725 217.12 162.77 215.075C164.815 213.029 167.421 211.637 170.258 211.073C173.095 210.508 176.035 210.797 178.707 211.905C181.38 213.012 183.664 214.886 185.271 217.291C186.878 219.696 187.735 222.524 187.735 225.416C187.744 227.341 187.371 229.249 186.64 231.031C185.908 232.812 184.833 234.432 183.474 235.796C182.115 237.16 180.5 238.243 178.722 238.982C176.943 239.721 175.037 240.101 173.112 240.101V240.04ZM326.106 240.04C323.213 240.04 320.385 239.183 317.98 237.575C315.576 235.968 313.701 233.684 312.594 231.012C311.488 228.34 311.198 225.4 311.762 222.563C312.327 219.726 313.719 217.12 315.765 215.075C317.81 213.029 320.416 211.637 323.252 211.073C326.089 210.508 329.03 210.797 331.702 211.905C334.374 213.012 336.658 214.886 338.265 217.291C339.872 219.696 340.73 222.524 340.73 225.416C340.735 227.341 340.362 229.248 339.63 231.028C338.898 232.809 337.821 234.427 336.463 235.791C335.105 237.156 333.491 238.238 331.713 238.978C329.936 239.717 328.031 240.099 326.106 240.101V240.04ZM362.014 298.629C359.117 298.632 356.285 297.775 353.875 296.168C351.465 294.561 349.586 292.274 348.477 289.598C347.366 286.922 347.076 283.978 347.64 281.137C348.204 278.295 349.599 275.685 351.647 273.637C353.695 271.589 356.305 270.195 359.147 269.63C361.988 269.066 364.932 269.357 367.608 270.467C370.284 271.576 372.57 273.456 374.177 275.865C375.785 278.275 376.642 281.108 376.639 284.004C376.646 285.93 376.274 287.838 375.542 289.619C374.811 291.4 373.735 293.02 372.376 294.384C371.017 295.749 369.403 296.832 367.625 297.57C365.846 298.309 363.94 298.689 362.014 298.689V298.629Z" fill="#F79D22"/>
<path d="M187.676 79.2486C184.783 79.2486 181.956 78.3909 179.551 76.784C177.146 75.177 175.272 72.893 174.164 70.2208C173.058 67.5485 172.769 64.6081 173.333 61.7713C173.897 58.9344 175.29 56.3287 177.335 54.2834C179.38 52.2382 181.986 50.8453 184.823 50.281C187.659 49.7167 190.6 50.0064 193.272 51.1132C195.945 52.2201 198.229 54.0946 199.836 56.4996C201.443 58.9045 202.3 61.732 202.3 64.6245C202.302 66.5455 201.925 68.448 201.192 70.2232C200.457 71.9984 199.38 73.6113 198.021 74.9697C196.663 76.3281 195.05 77.4053 193.275 78.1395C191.499 78.8738 189.597 79.2506 187.676 79.2486Z" fill="#F79D22"/>
<path d="M311.466 79.2486C308.575 79.2456 305.749 78.3855 303.346 76.7768C300.943 75.168 299.071 72.8829 297.966 70.2104C296.862 67.5379 296.574 64.5979 297.14 61.762C297.706 58.9262 299.1 56.3218 301.146 54.2781C303.192 52.2343 305.798 50.8429 308.635 50.2799C311.471 49.7168 314.411 50.0074 317.082 51.1147C319.753 52.222 322.036 54.0964 323.643 56.501C325.249 58.9057 326.106 61.7327 326.106 64.6245C326.106 66.5462 325.727 68.449 324.992 70.2243C324.256 71.9996 323.177 73.6124 321.818 74.9707C320.458 76.3288 318.844 77.4058 317.068 78.1399C315.291 78.8739 313.389 79.2506 311.466 79.2486Z" fill="#F79D22"/>
<path d="M186.31 371.189L249.586 409.222V450L186.31 371.189Z" fill="#F79D22"/>
<path d="M312.862 371.189L249.587 409.222V450L312.862 371.189Z" fill="#F79D22"/>
</svg>
