<svg width="500" height="500" viewBox="0 0 500 500" fill="none" xmlns="http://www.w3.org/2000/svg">
<path fill-rule="evenodd" clip-rule="evenodd" d="M296.476 64.5134L442.791 305.289C457.622 329.695 448.836 360.911 423.165 375.012C415.001 379.496 405.74 381.857 396.311 381.857H103.68C74.0335 381.857 50 359.007 50 330.821C50 321.857 52.4833 313.05 57.2 305.289L203.516 64.5134C218.346 40.1073 251.18 31.7531 276.849 45.8538C284.999 50.3303 291.768 56.7653 296.476 64.5134ZM228.398 326.93L171.911 232.666C164.964 221.072 169 206.199 180.927 199.445C184.746 197.282 189.087 196.143 193.506 196.143H306.481C320.284 196.143 331.473 207.021 331.473 220.438C331.473 224.734 330.301 228.954 328.077 232.666L271.59 326.93C264.641 338.524 249.341 342.448 237.414 335.694C233.68 333.58 230.574 330.56 228.398 326.93Z" fill="white"/>
</svg>
