<svg width="500" height="500" viewBox="0 0 500 500" fill="none" xmlns="http://www.w3.org/2000/svg">
<path fill-rule="evenodd" clip-rule="evenodd" d="M308.095 60.8917L490.989 361.862C509.528 392.369 498.545 431.389 466.456 449.015C456.252 454.62 444.675 457.572 432.889 457.572H67.1004C30.0418 457.572 0 429.009 0 393.776C0 382.572 3.10409 371.563 8.99995 361.862L191.895 60.8917C210.433 30.3841 251.475 19.9414 283.562 37.5673C293.749 43.1629 302.21 51.2066 308.095 60.8917ZM222.997 388.913L152.389 271.083C143.704 256.59 148.75 237.999 163.659 229.556C168.433 226.853 173.859 225.429 179.383 225.429H320.602C337.855 225.429 351.842 239.026 351.842 255.797C351.842 261.167 350.376 266.443 347.596 271.083L276.987 388.913C268.302 403.405 249.176 408.31 234.267 399.867C229.6 397.225 225.717 393.45 222.997 388.913Z" fill="white"/>
</svg>
