<svg width="500" height="500" viewBox="0 0 500 500" fill="none" xmlns="http://www.w3.org/2000/svg">
  <path
    d="M127.049 11.7441C131.459 11.704 131.459 11.704 135.958 11.6631C145.694 11.589 155.429 11.586 165.165 11.5899C171.922 11.5674 178.68 11.5431 185.437 11.517C199.608 11.4744 213.779 11.4695 227.95 11.488C246.125 11.5067 264.296 11.41 282.47 11.2823C296.428 11.2007 310.385 11.1914 324.342 11.2029C331.043 11.1976 337.745 11.167 344.445 11.1108C353.812 11.041 363.173 11.0712 372.539 11.127C376.704 11.0641 376.704 11.0641 380.952 11C399.615 11.2586 399.615 11.2586 409.337 19.8336C414.625 29.445 418.439 38.5821 421.875 49.0054C422.529 50.9606 423.184 52.9158 423.858 54.9302C426.002 61.3618 428.098 67.8079 430.194 74.2554C431.694 78.7883 433.197 83.3202 434.702 87.8513C438.658 99.7855 442.574 111.733 446.481 123.683C449.632 133.298 452.81 142.904 455.991 152.51C464.66 178.695 473.31 204.885 481.777 231.136C483.928 237.734 486.139 244.309 488.353 250.886C489.818 255.337 491.281 259.789 492.743 264.241C494.063 268.189 495.382 272.137 496.741 276.205C499.99 289.47 500.49 299.658 499.624 313.253C494.711 319.807 494.711 319.807 487.38 324.905C484.492 326.986 481.604 329.068 478.628 331.212C476.964 332.356 475.3 333.5 473.585 334.679C467.362 338.992 461.257 343.446 455.152 347.925C429.544 366.664 403.629 384.972 377.671 403.222C363.544 413.167 349.503 423.222 335.514 433.361C328.347 438.555 321.167 443.73 313.985 448.903C305.45 455.051 296.962 461.256 288.509 467.516C284.89 470.143 281.269 472.768 277.647 475.391C274.568 477.66 271.488 479.929 268.316 482.266C257.453 488.138 252.704 489.317 240.519 487.043C231.093 481.846 222.759 475.445 214.253 468.874C209.166 465.069 204.077 461.267 198.985 457.469C196.421 455.536 193.856 453.603 191.214 451.612C179.901 443.174 168.352 435.089 156.784 427.006C133.561 410.681 110.52 394.115 87.54 377.449C77.5181 370.185 67.4589 362.976 57.3737 355.8C54.8073 353.966 52.241 352.133 49.5968 350.244C44.7034 346.75 39.8022 343.267 34.8917 339.798C9.08903 321.326 9.08903 321.326 0.373644 310.093C-1.28364 291.947 2.77769 277.559 8.49535 260.647C9.35786 258.011 10.2204 255.375 11.109 252.659C13.9486 244.013 16.8362 235.383 19.7275 226.753C21.7199 220.739 23.7104 214.724 25.6992 208.708C30.9029 193.005 36.1543 177.318 41.4178 161.635C44.5911 152.162 47.746 142.683 50.8951 133.203C55.9042 118.127 60.9458 103.064 66.0159 88.0091C67.9348 82.3033 69.8455 76.5948 71.7481 70.8836C74.4044 62.9256 77.0973 54.981 79.8009 47.039C80.5793 44.6853 81.3577 42.3316 82.1597 39.9066C91.2187 13.6036 100.299 11.6551 127.049 11.7441ZM152.045 57.3084C159.036 83.5966 159.036 83.5966 167.288 109.285C168.739 113.394 168.739 113.394 170.22 117.586C171.195 120.308 172.171 123.031 173.176 125.837C174.188 128.694 175.2 131.552 176.243 134.495C178.698 141.422 181.165 148.344 183.643 155.263C206.538 141.486 227.846 126.291 249.073 110.111C267.007 96.5094 285.409 83.7057 304.107 71.1789C309.292 67.6812 314.412 64.0852 319.515 60.4682C319.515 59.4255 319.515 58.3827 319.515 57.3084C264.25 57.3084 208.984 57.3084 152.045 57.3084ZM362.172 83.8088C359.919 85.4506 357.667 87.0923 355.346 88.7839C352.906 90.5839 350.466 92.384 347.953 94.2387C342.757 98.0324 337.56 101.826 332.364 105.619C329.7 107.571 327.037 109.523 324.293 111.534C312.137 120.432 299.93 129.258 287.719 138.081C285.405 139.76 283.092 141.438 280.708 143.168C268.626 151.914 256.474 160.534 244.185 168.988C241.715 170.696 239.245 172.405 236.7 174.165C231.991 177.413 227.265 180.639 222.522 183.837C220.413 185.295 218.303 186.753 216.13 188.255C214.274 189.516 212.419 190.777 210.507 192.076C204.485 196.963 204.485 196.963 199.442 208.979C206.741 229.834 214.04 250.689 221.56 272.176C294.552 272.176 367.544 272.176 442.747 272.176C436.647 249.807 430.393 227.905 422.999 205.992C422.053 203.163 421.107 200.334 420.132 197.419C417.147 188.499 414.148 179.583 411.149 170.667C409.141 164.672 407.133 158.678 405.126 152.683C401.428 141.642 397.726 130.602 394.017 119.565C389.172 105.14 384.356 90.7054 379.551 76.2673C371.33 76.2673 368.769 78.9649 362.172 83.8088ZM114.127 98.3859C103.637 123.074 95.1982 148.346 87.034 173.871C84.8729 180.621 82.6898 187.364 80.5045 194.106C79.1208 198.405 77.7383 202.705 76.3572 207.004C75.1139 210.874 73.8706 214.744 72.5895 218.73C69.5931 227.35 69.5931 227.35 69.8895 234.258C86.1763 229.17 98.2608 219.072 111.56 208.782C116.078 205.318 120.6 201.857 125.124 198.401C127.109 196.87 129.093 195.338 131.138 193.76C136.246 190.02 136.246 190.02 142.565 186.861C138.297 166.326 132.838 146.57 126.371 126.627C125.058 122.524 125.058 122.524 123.717 118.338C121.585 111.684 119.441 105.033 117.287 98.3859C116.244 98.3859 115.201 98.3859 114.127 98.3859ZM140.751 241.75C138.643 243.304 136.535 244.858 134.363 246.459C132.182 248.102 130.001 249.746 127.754 251.439C125.536 253.071 123.318 254.702 121.033 256.383C112.706 262.53 112.706 262.53 104.647 269.016C104.647 270.059 104.647 271.101 104.647 272.176C126.545 272.176 148.442 272.176 171.003 272.176C166.911 253.038 166.911 253.038 161.524 234.258C150.885 234.258 148.993 235.637 140.751 241.75ZM92.0082 319.573C99.5144 327.321 106.887 334.25 115.744 340.408C117.854 341.885 119.964 343.363 122.138 344.885C124.382 346.438 126.626 347.991 128.938 349.591C133.72 352.931 138.5 356.272 143.281 359.614C145.746 361.33 148.212 363.047 150.752 364.816C163.399 373.644 175.986 382.555 188.58 391.459C193.126 394.668 197.672 397.877 202.219 401.086C205.473 403.383 208.728 405.681 212.081 408.048C215.963 396.402 214.025 392.63 210.131 381.164C208.426 376.099 208.426 376.099 206.687 370.932C205.469 367.409 204.251 363.885 202.997 360.255C201.803 356.708 200.61 353.16 199.38 349.505C195.117 333.402 195.117 333.402 186.803 319.573C179.792 319.295 172.773 319.235 165.758 319.264C163.658 319.269 161.559 319.273 159.395 319.278C152.666 319.295 145.937 319.335 139.208 319.375C134.655 319.391 130.103 319.406 125.55 319.418C114.37 319.453 103.189 319.508 92.0082 319.573ZM237.36 319.573C247.787 352.94 258.214 386.308 268.958 420.687C289.373 407.695 308.816 395.264 327.809 380.597C348.653 364.701 369.892 349.468 391.457 334.567C397.02 330.696 402.513 326.725 407.989 322.733C407.989 321.69 407.989 320.647 407.989 319.573C351.682 319.573 295.374 319.573 237.36 319.573Z"
    fill="url(#paint0_linear_637_12)" />
  <defs>
    <linearGradient id="paint0_linear_637_12" x1="7.89953" y1="311.182" x2="459.753" y2="167.411"
      gradientUnits="userSpaceOnUse">
      <stop stop-color="#E54165" />
      <stop offset="1" stop-color="#E6519F" />
    </linearGradient>
  </defs>
</svg>
  