<svg width="500" height="500" viewBox="0 0 500 500" fill="none" xmlns="http://www.w3.org/2000/svg">
  <path
    d="M151.639 59.5953C155.167 59.5632 155.167 59.5632 158.766 59.5304C166.555 59.4712 174.343 59.4688 182.132 59.4719C187.538 59.4539 192.944 59.4345 198.349 59.4136C209.686 59.3795 221.023 59.3756 232.36 59.3904C246.9 59.4053 261.437 59.328 275.976 59.2258C287.142 59.1605 298.308 59.1531 309.474 59.1623C314.835 59.1581 320.196 59.1336 325.556 59.0887C333.05 59.0328 340.538 59.057 348.032 59.1016C351.363 59.0513 351.363 59.0513 354.762 59C369.692 59.2069 369.692 59.2069 377.47 66.0669C381.7 73.756 384.751 81.0657 387.5 89.4043C388.023 90.9685 388.547 92.5326 389.086 94.1442C390.802 99.2895 392.479 104.446 394.156 109.604C395.356 113.231 396.558 116.856 397.762 120.481C400.927 130.028 404.059 139.586 407.185 149.146C409.706 156.839 412.248 164.524 414.793 172.208C421.728 193.156 428.648 214.108 435.421 235.109C437.142 240.387 438.911 245.647 440.682 250.909C441.854 254.47 443.025 258.031 444.195 261.593C445.25 264.751 446.306 267.91 447.393 271.164C449.992 281.776 450.392 289.927 449.699 300.803C445.769 306.046 445.769 306.046 439.904 310.124C437.593 311.789 435.283 313.454 432.903 315.17C431.571 316.085 430.24 317 428.868 317.943C423.889 321.393 419.005 324.957 414.122 328.54C393.635 343.531 372.903 358.178 352.137 372.778C340.836 380.734 329.602 388.777 318.411 396.889C312.678 401.044 306.934 405.184 301.188 409.322C294.36 414.241 287.57 419.205 280.807 424.213C277.912 426.314 275.015 428.414 272.118 430.513C269.654 432.328 267.191 434.143 264.653 436.013C255.962 440.71 252.163 441.654 242.415 439.834C234.874 435.677 228.207 430.556 221.403 425.299C217.333 422.255 213.262 419.214 209.188 416.175C207.136 414.629 205.085 413.083 202.971 411.49C193.921 404.739 184.682 398.271 175.427 391.805C156.849 378.745 138.416 365.492 120.032 352.159C112.014 346.348 103.967 340.581 95.899 334.84C93.8459 333.373 91.7928 331.907 89.6775 330.396C85.7628 327.6 81.8418 324.814 77.9133 322.038C57.2712 307.261 57.2712 307.261 50.2989 298.275C48.9731 283.758 52.2222 272.247 56.7963 258.718C57.4863 256.609 58.1763 254.5 58.8872 252.327C61.1589 245.41 63.469 238.506 65.782 231.603C67.3759 226.791 68.9683 221.979 70.5594 217.166C74.7223 204.604 78.9235 192.054 83.1343 179.508C85.6729 171.93 88.1968 164.347 90.7161 156.762C94.7234 144.702 98.7566 132.651 102.813 120.607C104.348 116.043 105.876 111.476 107.398 106.907C109.524 100.541 111.678 94.1848 113.841 87.8312C114.463 85.9482 115.086 84.0653 115.728 82.1253C122.975 61.0829 130.239 59.5241 151.639 59.5953ZM171.636 96.0467C177.229 117.077 177.229 117.077 183.831 137.628C184.991 140.915 184.991 140.915 186.176 144.268C186.956 146.447 187.737 148.625 188.541 150.869C189.35 153.155 190.16 155.441 190.994 157.796C192.959 163.337 194.932 168.875 196.914 174.41C215.231 163.389 232.277 151.233 249.258 138.289C263.605 127.408 278.327 117.165 293.285 107.143C297.434 104.345 301.529 101.468 305.612 98.5746C305.612 97.7404 305.612 96.9062 305.612 96.0467C261.4 96.0467 217.188 96.0467 171.636 96.0467ZM339.738 117.247C337.936 118.56 336.133 119.874 334.277 121.227C332.325 122.667 330.373 124.107 328.362 125.591C324.205 128.626 320.048 131.661 315.891 134.695C313.76 136.257 311.63 137.818 309.434 139.427C299.71 146.546 289.944 153.607 280.175 160.665C278.324 162.008 276.474 163.351 274.567 164.734C264.901 171.731 255.179 178.627 245.348 185.39C243.372 186.757 241.396 188.124 239.36 189.532C235.592 192.131 231.812 194.711 228.018 197.27C226.33 198.436 224.643 199.603 222.904 200.804C221.419 201.813 219.935 202.822 218.406 203.861C213.588 207.77 213.588 207.77 209.553 217.383C215.393 234.067 221.232 250.751 227.248 267.94C285.642 267.94 344.035 267.94 404.198 267.94C399.317 250.046 394.315 232.524 388.399 214.994C387.642 212.731 386.885 210.467 386.105 208.136C383.717 200.999 381.319 193.866 378.919 186.733C377.312 181.938 375.706 177.142 374.101 172.346C371.143 163.513 368.181 154.682 365.214 145.852C361.337 134.312 357.485 122.764 353.641 111.214C347.064 111.214 345.015 113.372 339.738 117.247ZM141.302 128.909C132.91 148.66 126.159 168.877 119.627 189.297C117.898 194.697 116.152 200.091 114.404 205.485C113.297 208.924 112.191 212.364 111.086 215.804C110.091 218.899 109.096 221.995 108.072 225.184C105.675 232.08 105.675 232.08 105.912 237.606C118.941 233.536 128.609 225.457 139.248 217.226C142.862 214.454 146.48 211.686 150.1 208.921C151.687 207.696 153.275 206.47 154.91 205.208C158.996 202.216 158.996 202.216 164.052 199.689C160.637 183.261 156.271 167.456 151.097 151.501C150.046 148.219 150.046 148.219 148.974 144.871C147.268 139.547 145.553 134.227 143.829 128.909C142.995 128.909 142.161 128.909 141.302 128.909ZM162.601 243.6C160.914 244.843 159.228 246.086 157.491 247.367C155.746 248.682 154.001 249.997 152.203 251.351C150.429 252.657 148.654 253.962 146.826 255.306C140.165 260.224 140.165 260.224 133.718 265.413C133.718 266.247 133.718 267.081 133.718 267.94C151.236 267.94 168.754 267.94 186.803 267.94C183.528 252.63 183.528 252.63 179.219 237.606C170.708 237.606 169.194 238.709 162.601 243.6ZM123.607 305.858C129.612 312.057 135.51 317.6 142.595 322.526C144.283 323.708 145.971 324.89 147.711 326.108C149.506 327.351 151.301 328.593 153.151 329.873C156.976 332.545 160.8 335.218 164.625 337.891C166.597 339.264 168.569 340.638 170.601 342.053C180.719 349.115 190.789 356.244 200.864 363.367C204.501 365.934 208.138 368.502 211.775 371.069C214.379 372.907 216.982 374.745 219.665 376.638C222.77 367.322 221.22 364.304 218.105 355.132C216.741 351.08 216.741 351.08 215.35 346.946C214.375 344.127 213.401 341.308 212.397 338.404C211.443 335.566 210.488 332.728 209.504 329.804C206.093 316.922 206.093 316.922 199.442 305.858C193.834 305.636 188.219 305.588 182.606 305.611C180.926 305.615 179.247 305.619 177.516 305.622C172.133 305.636 166.75 305.668 161.366 305.7C157.724 305.713 154.082 305.724 150.44 305.735C141.496 305.763 132.551 305.806 123.607 305.858ZM239.888 305.858C248.23 332.552 256.571 359.246 265.166 386.749C281.499 376.356 297.053 366.412 312.247 354.677C328.922 341.961 345.913 329.775 363.166 317.854C367.616 314.757 372.01 311.58 376.392 308.386C376.392 307.552 376.392 306.718 376.392 305.858C331.345 305.858 286.299 305.858 239.888 305.858Z"
    fill="url(#paint0_linear_637_12)" />
  <defs>
    <linearGradient id="paint0_linear_637_12" x1="56.3196" y1="299.146" x2="417.802" y2="184.129"
      gradientUnits="userSpaceOnUse">
      <stop stop-color="#E54165" />
      <stop offset="1" stop-color="#E6519F" />
    </linearGradient>
  </defs>
</svg>
  