<svg width="500" height="500" viewBox="0 0 500 500" fill="none" xmlns="http://www.w3.org/2000/svg">
  <rect width="500" height="500" rx="250" fill="#FFF9F9" />
  <mask id="mask0_639_63" style="mask-type:luminance" maskUnits="userSpaceOnUse" x="107" y="207"
    width="286" height="223">
    <path
      d="M107.884 288.349C107.884 258.327 117.282 230.487 133.314 207.576L250.421 277.636L367.528 207.576C368.175 208.5 368.793 209.446 369.418 210.386L369.438 210.374C369.617 210.644 369.783 210.922 369.961 211.192C370.394 211.854 370.816 212.522 371.238 213.191C371.732 213.973 372.222 214.757 372.7 215.549C373.113 216.232 373.516 216.921 373.918 217.612C374.38 218.407 374.838 219.206 375.285 220.011C375.675 220.713 376.057 221.42 376.435 222.13C376.867 222.941 377.293 223.756 377.71 224.576C378.076 225.296 378.435 226.019 378.789 226.745C379.191 227.57 379.584 228.401 379.97 229.235C380.311 229.972 380.648 230.711 380.976 231.455C381.347 232.295 381.708 233.141 382.064 233.991C382.378 234.742 382.69 235.494 382.991 236.251C383.333 237.108 383.661 237.971 383.986 238.836C384.273 239.601 384.559 240.365 384.833 241.136C385.144 242.009 385.44 242.889 385.734 243.77C385.992 244.545 386.251 245.32 386.496 246.101C386.777 246.994 387.04 247.893 387.303 248.793C387.532 249.576 387.762 250.356 387.978 251.144C388.227 252.057 388.458 252.977 388.689 253.898C388.887 254.685 389.09 255.472 389.275 256.265C389.493 257.2 389.689 258.142 389.889 259.085C390.055 259.874 390.229 260.661 390.383 261.455C390.57 262.42 390.732 263.393 390.899 264.365C391.033 265.147 391.177 265.926 391.298 266.712C391.453 267.718 391.581 268.732 391.715 269.744C391.816 270.508 391.928 271.267 392.017 272.034C392.14 273.1 392.233 274.175 392.332 275.249C392.398 275.973 392.48 276.691 392.536 277.418C392.628 278.613 392.685 279.817 392.747 281.02C392.779 281.633 392.827 282.242 392.851 282.857C392.92 284.679 392.958 286.509 392.958 288.349C392.958 296.905 392.194 305.285 390.732 313.423C390.105 316.912 389.349 320.355 388.471 323.75C387.592 327.144 386.589 330.489 385.469 333.781C384.722 335.974 383.922 338.144 383.071 340.289C382.646 341.361 382.208 342.427 381.757 343.486C360.119 394.327 309.462 430 250.422 430H250.421C250.377 430 250.334 429.999 250.29 429.998C171.629 429.927 107.884 366.538 107.884 288.349Z"
      fill="url(#paint0_radial_639_63)" />
  </mask>
  <g mask="url(#mask0_639_63)">
    <path
      d="M107.884 288.349C107.884 258.327 117.282 230.487 133.314 207.576L250.421 277.636L367.528 207.576C368.175 208.5 368.793 209.446 369.418 210.386L369.438 210.374C369.617 210.644 369.783 210.922 369.961 211.192C370.394 211.854 370.816 212.522 371.238 213.191C371.732 213.973 372.222 214.757 372.7 215.549C373.113 216.232 373.516 216.921 373.918 217.612C374.38 218.407 374.838 219.206 375.285 220.011C375.675 220.713 376.057 221.42 376.435 222.13C376.867 222.941 377.293 223.756 377.71 224.576C378.076 225.296 378.435 226.019 378.789 226.745C379.191 227.57 379.584 228.401 379.97 229.235C380.311 229.972 380.648 230.711 380.976 231.455C381.347 232.295 381.708 233.141 382.064 233.991C382.378 234.742 382.69 235.494 382.991 236.251C383.333 237.108 383.661 237.971 383.986 238.836C384.273 239.601 384.559 240.365 384.833 241.136C385.144 242.009 385.44 242.889 385.734 243.77C385.992 244.545 386.251 245.32 386.496 246.101C386.777 246.994 387.04 247.893 387.303 248.793C387.532 249.576 387.762 250.356 387.978 251.144C388.227 252.057 388.458 252.977 388.689 253.898C388.887 254.685 389.09 255.472 389.275 256.265C389.493 257.2 389.689 258.142 389.889 259.085C390.055 259.874 390.229 260.661 390.383 261.455C390.57 262.42 390.732 263.393 390.899 264.365C391.033 265.147 391.177 265.926 391.298 266.712C391.453 267.718 391.581 268.732 391.715 269.744C391.816 270.508 391.928 271.267 392.017 272.034C392.14 273.1 392.233 274.175 392.332 275.249C392.398 275.973 392.48 276.691 392.536 277.418C392.628 278.613 392.685 279.817 392.747 281.02C392.779 281.633 392.827 282.242 392.851 282.857C392.92 284.679 392.958 286.509 392.958 288.349C392.958 296.905 392.194 305.285 390.732 313.423C390.105 316.912 389.349 320.355 388.471 323.75C387.592 327.144 386.589 330.489 385.469 333.781C384.722 335.974 383.922 338.144 383.071 340.289C382.646 341.361 382.208 342.427 381.757 343.486C360.119 394.327 309.462 430 250.422 430H250.421C250.377 430 250.334 429.999 250.29 429.998C171.629 429.927 107.884 366.538 107.884 288.349Z"
      fill="url(#paint1_radial_639_63)" />
  </g>
  <g opacity="0.01">
    <mask id="mask1_639_63" style="mask-type:luminance" maskUnits="userSpaceOnUse" x="107" y="207"
      width="286" height="223">
      <path
        d="M107.884 288.349C107.884 258.327 117.282 230.487 133.314 207.576L250.421 277.636L367.528 207.576C368.175 208.5 368.793 209.446 369.418 210.386L369.438 210.374C369.617 210.644 369.783 210.922 369.961 211.192C370.394 211.854 370.816 212.522 371.238 213.191C371.732 213.973 372.222 214.757 372.7 215.549C373.113 216.232 373.516 216.921 373.918 217.612C374.38 218.407 374.838 219.206 375.285 220.011C375.675 220.713 376.057 221.42 376.435 222.13C376.867 222.941 377.293 223.756 377.71 224.576C378.076 225.296 378.435 226.019 378.789 226.745C379.191 227.57 379.584 228.401 379.97 229.235C380.311 229.972 380.648 230.711 380.976 231.455C381.347 232.295 381.708 233.141 382.064 233.991C382.378 234.742 382.69 235.494 382.991 236.251C383.333 237.108 383.661 237.971 383.986 238.836C384.273 239.601 384.559 240.365 384.833 241.136C385.144 242.009 385.44 242.889 385.734 243.77C385.992 244.545 386.251 245.32 386.496 246.101C386.777 246.994 387.04 247.893 387.303 248.793C387.532 249.576 387.762 250.356 387.978 251.144C388.227 252.057 388.458 252.977 388.689 253.898C388.887 254.685 389.09 255.472 389.275 256.265C389.493 257.2 389.689 258.142 389.889 259.085C390.055 259.874 390.229 260.661 390.383 261.455C390.57 262.42 390.732 263.393 390.899 264.365C391.033 265.147 391.177 265.926 391.298 266.712C391.453 267.718 391.581 268.732 391.715 269.744C391.816 270.508 391.928 271.267 392.017 272.034C392.14 273.1 392.233 274.175 392.332 275.249C392.398 275.973 392.48 276.691 392.536 277.418C392.628 278.613 392.685 279.817 392.747 281.02C392.779 281.633 392.827 282.242 392.851 282.857C392.92 284.679 392.958 286.509 392.958 288.349C392.958 296.905 392.194 305.285 390.732 313.423C390.105 316.912 389.349 320.355 388.471 323.75C387.592 327.144 386.589 330.489 385.469 333.781C384.722 335.974 383.922 338.144 383.071 340.289C382.646 341.361 382.208 342.427 381.757 343.486C360.119 394.327 309.462 430 250.422 430H250.421C250.377 430 250.334 429.999 250.29 429.998C171.629 429.927 107.884 366.538 107.884 288.349Z"
        fill="url(#paint2_radial_639_63)" />
    </mask>
    <g mask="url(#mask1_639_63)">
      <path
        d="M107.884 288.349C107.884 258.327 117.282 230.487 133.314 207.576L250.421 277.636L367.528 207.576C368.175 208.5 368.793 209.446 369.418 210.386L369.438 210.374C369.617 210.644 369.783 210.922 369.961 211.192C370.394 211.854 370.816 212.522 371.238 213.191C371.732 213.973 372.222 214.757 372.7 215.549C373.113 216.232 373.516 216.921 373.918 217.612C374.38 218.407 374.838 219.206 375.285 220.011C375.675 220.713 376.057 221.42 376.435 222.13C376.867 222.941 377.293 223.756 377.71 224.576C378.076 225.296 378.435 226.019 378.789 226.745C379.191 227.57 379.584 228.401 379.97 229.235C380.311 229.972 380.648 230.711 380.976 231.455C381.347 232.295 381.708 233.141 382.064 233.991C382.378 234.742 382.69 235.494 382.991 236.251C383.333 237.108 383.661 237.971 383.986 238.836C384.273 239.601 384.559 240.365 384.833 241.136C385.144 242.009 385.44 242.889 385.734 243.77C385.992 244.545 386.251 245.32 386.496 246.101C386.777 246.994 387.04 247.893 387.303 248.793C387.532 249.576 387.762 250.356 387.978 251.144C388.227 252.057 388.458 252.977 388.689 253.898C388.887 254.685 389.09 255.472 389.275 256.265C389.493 257.2 389.689 258.142 389.889 259.085C390.055 259.874 390.229 260.661 390.383 261.455C390.57 262.42 390.732 263.393 390.899 264.365C391.033 265.147 391.177 265.926 391.298 266.712C391.453 267.718 391.581 268.732 391.715 269.744C391.816 270.508 391.928 271.267 392.017 272.034C392.14 273.1 392.233 274.175 392.332 275.249C392.398 275.973 392.48 276.691 392.536 277.418C392.628 278.613 392.685 279.817 392.747 281.02C392.779 281.633 392.827 282.242 392.851 282.857C392.92 284.679 392.958 286.509 392.958 288.349C392.958 296.905 392.194 305.285 390.732 313.423C390.105 316.912 389.349 320.355 388.471 323.75C387.592 327.144 386.589 330.489 385.469 333.781C384.722 335.974 383.922 338.144 383.071 340.289C382.646 341.361 382.208 342.427 381.757 343.486C360.119 394.327 309.462 430 250.422 430H250.421C250.377 430 250.334 429.999 250.29 429.998C171.629 429.927 107.884 366.538 107.884 288.349Z"
        fill="url(#paint3_radial_639_63)" />
    </g>
  </g>
  <g opacity="0.29">
    <mask id="mask2_639_63" style="mask-type:luminance" maskUnits="userSpaceOnUse" x="107" y="207"
      width="286" height="223">
      <path
        d="M107.884 288.349C107.884 258.327 117.282 230.487 133.314 207.576L250.421 277.636L367.528 207.576C368.175 208.5 368.793 209.446 369.418 210.386L369.438 210.374C369.617 210.644 369.783 210.922 369.961 211.192C370.394 211.854 370.816 212.522 371.238 213.191C371.732 213.973 372.222 214.757 372.7 215.549C373.113 216.232 373.516 216.921 373.918 217.612C374.38 218.407 374.838 219.206 375.285 220.011C375.675 220.713 376.057 221.42 376.435 222.13C376.867 222.941 377.293 223.756 377.71 224.576C378.076 225.296 378.435 226.019 378.789 226.745C379.191 227.57 379.584 228.401 379.97 229.235C380.311 229.972 380.648 230.711 380.976 231.455C381.347 232.295 381.708 233.141 382.064 233.991C382.378 234.742 382.69 235.494 382.991 236.251C383.333 237.108 383.661 237.971 383.986 238.836C384.273 239.601 384.559 240.365 384.833 241.136C385.144 242.009 385.44 242.889 385.734 243.77C385.992 244.545 386.251 245.32 386.496 246.101C386.777 246.994 387.04 247.893 387.303 248.793C387.532 249.576 387.762 250.356 387.978 251.144C388.227 252.057 388.458 252.977 388.689 253.898C388.887 254.685 389.09 255.472 389.275 256.265C389.493 257.2 389.689 258.142 389.889 259.085C390.055 259.874 390.229 260.661 390.383 261.455C390.57 262.42 390.732 263.393 390.899 264.365C391.033 265.147 391.177 265.926 391.298 266.712C391.453 267.718 391.581 268.732 391.715 269.744C391.816 270.508 391.928 271.267 392.017 272.034C392.14 273.1 392.233 274.175 392.332 275.249C392.398 275.973 392.48 276.691 392.536 277.418C392.628 278.613 392.685 279.817 392.747 281.02C392.779 281.633 392.827 282.242 392.851 282.857C392.92 284.679 392.958 286.509 392.958 288.349C392.958 296.905 392.194 305.285 390.732 313.423C390.105 316.912 389.349 320.355 388.471 323.75C387.592 327.144 386.589 330.489 385.469 333.781C384.722 335.974 383.922 338.144 383.071 340.289C382.646 341.361 382.208 342.427 381.757 343.486C360.119 394.327 309.462 430 250.422 430H250.421C250.377 430 250.334 429.999 250.29 429.998C171.629 429.927 107.884 366.538 107.884 288.349Z"
        fill="url(#paint4_radial_639_63)" />
    </mask>
    <g mask="url(#mask2_639_63)">
      <path
        d="M107.884 288.349C107.884 258.327 117.282 230.487 133.314 207.576L250.421 277.636L367.528 207.576C368.175 208.5 368.793 209.446 369.418 210.386L369.438 210.374C369.617 210.644 369.783 210.922 369.961 211.192C370.394 211.854 370.816 212.522 371.238 213.191C371.732 213.973 372.222 214.757 372.7 215.549C373.113 216.232 373.516 216.921 373.918 217.612C374.38 218.407 374.838 219.206 375.285 220.011C375.675 220.713 376.057 221.42 376.435 222.13C376.867 222.941 377.293 223.756 377.71 224.576C378.076 225.296 378.435 226.019 378.789 226.745C379.191 227.57 379.584 228.401 379.97 229.235C380.311 229.972 380.648 230.711 380.976 231.455C381.347 232.295 381.708 233.141 382.064 233.991C382.378 234.742 382.69 235.494 382.991 236.251C383.333 237.108 383.661 237.971 383.986 238.836C384.273 239.601 384.559 240.365 384.833 241.136C385.144 242.009 385.44 242.889 385.734 243.77C385.992 244.545 386.251 245.32 386.496 246.101C386.777 246.994 387.04 247.893 387.303 248.793C387.532 249.576 387.762 250.356 387.978 251.144C388.227 252.057 388.458 252.977 388.689 253.898C388.887 254.685 389.09 255.472 389.275 256.265C389.493 257.2 389.689 258.142 389.889 259.085C390.055 259.874 390.229 260.661 390.383 261.455C390.57 262.42 390.732 263.393 390.899 264.365C391.033 265.147 391.177 265.926 391.298 266.712C391.453 267.718 391.581 268.732 391.715 269.744C391.816 270.508 391.928 271.267 392.017 272.034C392.14 273.1 392.233 274.175 392.332 275.249C392.398 275.973 392.48 276.691 392.536 277.418C392.628 278.613 392.685 279.817 392.747 281.02C392.779 281.633 392.827 282.242 392.851 282.857C392.92 284.679 392.958 286.509 392.958 288.349C392.958 296.905 392.194 305.285 390.732 313.423C390.105 316.912 389.349 320.355 388.471 323.75C387.592 327.144 386.589 330.489 385.469 333.781C384.722 335.974 383.922 338.144 383.071 340.289C382.646 341.361 382.208 342.427 381.757 343.486C360.119 394.327 309.462 430 250.422 430H250.421C250.377 430 250.334 429.999 250.29 429.998C171.629 429.927 107.884 366.538 107.884 288.349Z"
        fill="url(#paint5_radial_639_63)" />
    </g>
  </g>
  <mask id="mask3_639_63" style="mask-type:luminance" maskUnits="userSpaceOnUse" x="107" y="207"
    width="286" height="223">
    <path
      d="M392.074 288.349C392.074 258.327 382.676 230.487 366.644 207.576L249.537 277.636L132.43 207.576C131.783 208.5 131.165 209.446 130.54 210.386L130.521 210.374C130.341 210.644 130.175 210.922 129.997 211.192C129.564 211.854 129.142 212.522 128.72 213.191C128.226 213.973 127.736 214.757 127.258 215.549C126.845 216.232 126.442 216.921 126.04 217.612C125.578 218.407 125.12 219.206 124.673 220.011C124.283 220.713 123.901 221.42 123.523 222.13C123.091 222.941 122.665 223.756 122.248 224.576C121.882 225.296 121.523 226.019 121.169 226.745C120.767 227.57 120.374 228.401 119.988 229.235C119.647 229.972 119.31 230.711 118.982 231.455C118.611 232.295 118.25 233.141 117.894 233.991C117.58 234.742 117.268 235.494 116.967 236.251C116.625 237.108 116.297 237.971 115.972 238.836C115.685 239.601 115.399 240.365 115.125 241.136C114.814 242.009 114.518 242.889 114.224 243.77C113.966 244.545 113.707 245.32 113.462 246.101C113.181 246.994 112.918 247.893 112.655 248.793C112.426 249.576 112.196 250.356 111.98 251.144C111.731 252.057 111.5 252.977 111.269 253.898C111.071 254.685 110.868 255.472 110.683 256.265C110.465 257.2 110.269 258.142 110.069 259.085C109.903 259.874 109.729 260.661 109.575 261.455C109.388 262.42 109.226 263.393 109.059 264.365C108.925 265.147 108.781 265.926 108.66 266.712C108.505 267.718 108.377 268.732 108.243 269.744C108.142 270.508 108.03 271.267 107.941 272.034C107.818 273.1 107.725 274.175 107.626 275.249C107.56 275.973 107.478 276.691 107.422 277.418C107.33 278.613 107.273 279.817 107.211 281.02C107.179 281.633 107.131 282.242 107.107 282.857C107.038 284.679 107 286.509 107 288.349C107 296.905 107.764 305.285 109.226 313.423C109.853 316.912 110.609 320.355 111.487 323.75C112.367 327.144 113.369 330.489 114.489 333.781C115.236 335.974 116.036 338.144 116.887 340.289C117.312 341.361 117.75 342.427 118.201 343.486C139.839 394.327 190.496 430 249.536 430H249.537C249.581 430 249.624 429.999 249.668 429.998C328.329 429.927 392.074 366.538 392.074 288.349Z"
      fill="url(#paint6_radial_639_63)" />
  </mask>
  <g mask="url(#mask3_639_63)">
    <path
      d="M392.074 288.349C392.074 258.327 382.676 230.487 366.644 207.576L249.537 277.636L132.43 207.576C131.783 208.5 131.165 209.446 130.54 210.386L130.521 210.374C130.341 210.644 130.175 210.922 129.997 211.192C129.564 211.854 129.142 212.522 128.72 213.191C128.226 213.973 127.736 214.757 127.258 215.549C126.845 216.232 126.442 216.921 126.04 217.612C125.578 218.407 125.12 219.206 124.673 220.011C124.283 220.713 123.901 221.42 123.523 222.13C123.091 222.941 122.665 223.756 122.248 224.576C121.882 225.296 121.523 226.019 121.169 226.745C120.767 227.57 120.374 228.401 119.988 229.235C119.647 229.972 119.31 230.711 118.982 231.455C118.611 232.295 118.25 233.141 117.894 233.991C117.58 234.742 117.268 235.494 116.967 236.251C116.625 237.108 116.297 237.971 115.972 238.836C115.685 239.601 115.399 240.365 115.125 241.136C114.814 242.009 114.518 242.889 114.224 243.77C113.966 244.545 113.707 245.32 113.462 246.101C113.181 246.994 112.918 247.893 112.655 248.793C112.426 249.576 112.196 250.356 111.98 251.144C111.731 252.057 111.5 252.977 111.269 253.898C111.071 254.685 110.868 255.472 110.683 256.265C110.465 257.2 110.269 258.142 110.069 259.085C109.903 259.874 109.729 260.661 109.575 261.455C109.388 262.42 109.226 263.393 109.059 264.365C108.925 265.147 108.781 265.926 108.66 266.712C108.505 267.718 108.377 268.732 108.243 269.744C108.142 270.508 108.03 271.267 107.941 272.034C107.818 273.1 107.725 274.175 107.626 275.249C107.56 275.973 107.478 276.691 107.422 277.418C107.33 278.613 107.273 279.817 107.211 281.02C107.179 281.633 107.131 282.242 107.107 282.857C107.038 284.679 107 286.509 107 288.349C107 296.905 107.764 305.285 109.226 313.423C109.853 316.912 110.609 320.355 111.487 323.75C112.367 327.144 113.369 330.489 114.489 333.781C115.236 335.974 116.036 338.144 116.887 340.289C117.312 341.361 117.75 342.427 118.201 343.486C139.839 394.327 190.496 430 249.536 430H249.537C249.581 430 249.624 429.999 249.668 429.998C328.329 429.927 392.074 366.538 392.074 288.349Z"
      fill="url(#paint7_radial_639_63)" />
  </g>
  <path d="M367.028 207.685L249.979 278.063L249.855 429.19L367.028 207.685Z"
    fill="url(#paint8_radial_639_63)" />
  <path d="M367.028 207.685L249.979 278.063L249.794 429.19L367.028 207.685Z"
    fill="url(#paint9_radial_639_63)" />
  <path d="M367.028 207.685L249.979 278.063L249.855 429.19L367.028 207.685Z"
    fill="url(#paint10_radial_639_63)" />
  <path d="M132.251 207.685L249.3 278.063L249.794 429.19L132.251 207.685Z"
    fill="url(#paint11_radial_639_63)" />
  <path d="M133.423 207.685L250.473 278.063L249.855 429.19L133.423 207.685Z"
    fill="url(#paint12_radial_639_63)" />
  <path d="M133.423 207.685L250.473 278.063L249.855 429.19L133.423 207.685Z"
    fill="url(#paint13_radial_639_63)" />
  <mask id="mask4_639_63" style="mask-type:luminance" maskUnits="userSpaceOnUse" x="249" y="30"
    width="102" height="211">
    <path d="M249.979 30V240.392L350.236 183.102L249.979 30Z" fill="url(#paint14_radial_639_63)" />
  </mask>
  <g mask="url(#mask4_639_63)">
    <path d="M249.979 30V240.392L350.236 183.102L249.979 30Z" fill="url(#paint15_radial_639_63)" />
  </g>
  <path d="M249.979 30V240.392L350.236 183.102L249.979 30Z" fill="url(#paint16_radial_639_63)" />
  <path d="M249.979 30V240.392L350.236 183.102L249.979 30Z" fill="url(#paint17_linear_639_63)" />
  <path d="M250.473 30V240.392L150.215 183.102L250.473 30Z" fill="url(#paint18_radial_639_63)" />
  <path d="M250.473 30V240.392L150.215 183.102L250.473 30Z" fill="url(#paint19_linear_639_63)" />
  <defs>
    <radialGradient id="paint0_radial_639_63" cx="0" cy="0" r="1" gradientUnits="userSpaceOnUse"
      gradientTransform="translate(125.769 141.999) rotate(180) scale(496.096 496.096)">
      <stop stop-color="white" stop-opacity="0.59" />
      <stop offset="0.5" stop-color="white" stop-opacity="0.295" />
      <stop offset="1" stop-color="white" stop-opacity="0" />
    </radialGradient>
    <radialGradient id="paint1_radial_639_63" cx="0" cy="0" r="1" gradientUnits="userSpaceOnUse"
      gradientTransform="translate(125.769 141.999) rotate(180) scale(496.096 496.096)">
      <stop stop-color="#00B2FF" />
      <stop offset="0.76" stop-color="#00ABFF" />
      <stop offset="1" stop-color="#00A3FF" />
    </radialGradient>
    <radialGradient id="paint2_radial_639_63" cx="0" cy="0" r="1" gradientUnits="userSpaceOnUse"
      gradientTransform="translate(204.789 189.412) rotate(180) scale(248.614 248.614)">
      <stop stop-color="white" stop-opacity="0.59" />
      <stop offset="0.5" stop-color="white" stop-opacity="0.295" />
      <stop offset="1" stop-color="white" stop-opacity="0" />
    </radialGradient>
    <radialGradient id="paint3_radial_639_63" cx="0" cy="0" r="1" gradientUnits="userSpaceOnUse"
      gradientTransform="translate(204.789 189.412) rotate(180) scale(248.614 248.614)">
      <stop stop-color="#00B2FF" />
      <stop offset="0.76" stop-color="#00ABFF" />
      <stop offset="1" stop-color="#00A3FF" />
    </radialGradient>
    <radialGradient id="paint4_radial_639_63" cx="0" cy="0" r="1" gradientUnits="userSpaceOnUse"
      gradientTransform="translate(154.907 159.285) rotate(180) scale(267.106 267.106)">
      <stop stop-color="white" />
      <stop offset="0.5" stop-color="white" stop-opacity="0.5" />
      <stop offset="1" stop-color="white" stop-opacity="0" />
    </radialGradient>
    <radialGradient id="paint5_radial_639_63" cx="0" cy="0" r="1" gradientUnits="userSpaceOnUse"
      gradientTransform="translate(154.907 159.285) rotate(180) scale(267.106 267.106)">
      <stop stop-color="#2A6BFF" />
      <stop offset="0.76" stop-color="#2A6BFF" />
      <stop offset="1" stop-color="#2A6BFF" />
    </radialGradient>
    <radialGradient id="paint6_radial_639_63" cx="0" cy="0" r="1" gradientUnits="userSpaceOnUse"
      gradientTransform="translate(345.051 159.285) scale(267.106 267.106)">
      <stop stop-color="white" />
      <stop offset="0.5" stop-color="white" stop-opacity="0.5" />
      <stop offset="1" stop-color="white" stop-opacity="0" />
    </radialGradient>
    <radialGradient id="paint7_radial_639_63" cx="0" cy="0" r="1" gradientUnits="userSpaceOnUse"
      gradientTransform="translate(345.051 159.285) scale(267.106 267.106)">
      <stop stop-color="#2A6BFF" />
      <stop offset="0.76" stop-color="#2A6BFF" />
      <stop offset="1" stop-color="#2A6BFF" />
    </radialGradient>
    <radialGradient id="paint8_radial_639_63" cx="0" cy="0" r="1" gradientUnits="userSpaceOnUse"
      gradientTransform="translate(234.916 307.449) scale(165.479)">
      <stop stop-color="#4DEAFF" />
      <stop offset="0.5" stop-color="#27C6FF" stop-opacity="0.5" />
      <stop offset="1" stop-color="#00A3FF" stop-opacity="0" />
    </radialGradient>
    <radialGradient id="paint9_radial_639_63" cx="0" cy="0" r="1" gradientUnits="userSpaceOnUse"
      gradientTransform="translate(245.287 282.261) scale(130.096 130.096)">
      <stop stop-color="#0057FF" />
      <stop offset="0.5" stop-color="#0F7BFF" stop-opacity="0.5" />
      <stop offset="1" stop-color="#1EA0FF" stop-opacity="0" />
    </radialGradient>
    <radialGradient id="paint10_radial_639_63" cx="0" cy="0" r="1" gradientUnits="userSpaceOnUse"
      gradientTransform="translate(383.573 226.947) scale(144.048 144.048)">
      <stop stop-color="#2241FF" />
      <stop offset="0.5" stop-color="#2070FF" stop-opacity="0.5" />
      <stop offset="1" stop-color="#1EA0FF" stop-opacity="0" />
    </radialGradient>
    <radialGradient id="paint11_radial_639_63" cx="0" cy="0" r="1" gradientUnits="userSpaceOnUse"
      gradientTransform="translate(347.026 330.167) rotate(180) scale(228.446 228.446)">
      <stop stop-color="#64E3FF" />
      <stop offset="0.5" stop-color="#32C3FF" stop-opacity="0.5" />
      <stop offset="1" stop-color="#00A3FF" stop-opacity="0" />
    </radialGradient>
    <radialGradient id="paint12_radial_639_63" cx="0" cy="0" r="1" gradientUnits="userSpaceOnUse"
      gradientTransform="translate(87.7395 226.947) rotate(180) scale(215.888 215.888)">
      <stop stop-color="#2241FF" />
      <stop offset="0.5" stop-color="#2070FF" stop-opacity="0.5" />
      <stop offset="1" stop-color="#1EA0FF" stop-opacity="0" />
    </radialGradient>
    <radialGradient id="paint13_radial_639_63" cx="0" cy="0" r="1" gradientUnits="userSpaceOnUse"
      gradientTransform="translate(116.878 226.947) rotate(180) scale(120.16 120.16)">
      <stop stop-color="#2241FF" />
      <stop offset="0.5" stop-color="#2070FF" stop-opacity="0.5" />
      <stop offset="1" stop-color="#1EA0FF" stop-opacity="0" />
    </radialGradient>
    <radialGradient id="paint14_radial_639_63" cx="0" cy="0" r="1" gradientUnits="userSpaceOnUse"
      gradientTransform="translate(239.775 80.9333) scale(158.38 158.38)">
      <stop stop-color="white" />
      <stop offset="0.3" stop-color="white" stop-opacity="0.935" />
      <stop offset="0.61" stop-color="white" stop-opacity="0.87" />
      <stop offset="0.79" stop-color="white" stop-opacity="0.435" />
      <stop offset="0.98" stop-color="white" stop-opacity="0" />
    </radialGradient>
    <radialGradient id="paint15_radial_639_63" cx="0" cy="0" r="1" gradientUnits="userSpaceOnUse"
      gradientTransform="translate(239.775 80.9333) scale(158.38 158.38)">
      <stop stop-color="#FFBFAB" />
      <stop offset="0.29" stop-color="#FF93AA" />
      <stop offset="0.59" stop-color="#FF67A8" />
      <stop offset="0.79" stop-color="#B58BD3" />
      <stop offset="0.99" stop-color="#6BAFFF" />
    </radialGradient>
    <radialGradient id="paint16_radial_639_63" cx="0" cy="0" r="1" gradientUnits="userSpaceOnUse"
      gradientTransform="translate(247.103 215.533) scale(126.585 126.585)">
      <stop stop-color="#2238FF" />
      <stop offset="0.5" stop-color="#2238FF" stop-opacity="0.5" />
      <stop offset="1" stop-color="#2238FF" stop-opacity="0" />
    </radialGradient>
    <linearGradient id="paint17_linear_639_63" x1="272.889" y1="165.398" x2="359.963" y2="217.433"
      gradientUnits="userSpaceOnUse">
      <stop stop-color="#29EDFE" stop-opacity="0" />
      <stop offset="0.5" stop-color="#29EDFE" stop-opacity="0.5" />
      <stop offset="1" stop-color="#29EDFE" />
    </linearGradient>
    <radialGradient id="paint18_radial_639_63" cx="0" cy="0" r="1" gradientUnits="userSpaceOnUse"
      gradientTransform="translate(253.112 121.155) rotate(180) scale(121.492 121.492)">
      <stop stop-color="#00A3FF" />
      <stop offset="0.5" stop-color="#00A3FF" stop-opacity="0.5" />
      <stop offset="1" stop-color="#00A3FF" stop-opacity="0" />
    </radialGradient>
    <linearGradient id="paint19_linear_639_63" x1="229.743" y1="189.951" x2="218.841" y2="41.3321"
      gradientUnits="userSpaceOnUse">
      <stop stop-color="#7A51FF" stop-opacity="0" />
      <stop offset="0.39" stop-color="#BC61D3" stop-opacity="0.5" />
      <stop offset="0.78" stop-color="#FF72A7" />
      <stop offset="0.89" stop-color="#FF728D" />
      <stop offset="1" stop-color="#FF7272" />
    </linearGradient>
  </defs>
</svg>
  