<svg width="500" height="500" viewBox="0 0 500 500" fill="none" xmlns="http://www.w3.org/2000/svg">
<path fill-rule="evenodd" clip-rule="evenodd" d="M249.991 2.00023C205.696 1.93988 162.18 13.6406 123.888 35.9068H376.094C337.803 13.6406 294.286 1.93988 249.991 2.00023ZM430.983 79.04C441.065 89.5176 450.21 100.857 458.314 112.929H41.6507C47.6332 104.156 54.1912 95.7666 61.2551 87.8132H60.9586C61.5691 87.1155 62.2144 86.4702 62.8772 85.8248C64.1129 84.6087 65.2831 83.3279 66.383 81.9877C67.255 80.9761 68.0922 79.9819 68.9992 79.0226H69.4352C77.9817 69.9878 87.2257 61.5809 97.0454 53.9066H235.271C225.457 61.5822 216.228 69.9774 207.66 79.0226H430.983V79.04ZM492.57 189.952C489.672 178.391 485.929 167.058 481.372 156.045H156.992C160.481 147.464 164.457 139.074 168.905 130.929H30.6799C26.2323 139.057 22.2556 147.446 18.7672 156.045H18.6277C18.3828 156.643 18.156 157.248 17.9475 157.859C17.7544 158.403 17.5508 158.944 17.337 159.481C17.0754 160.161 16.7789 160.841 16.4824 161.522C16.0026 162.613 15.5547 163.718 15.1394 164.836H15.3661C12.244 173.033 9.59291 181.44 7.39526 189.952H492.57ZM499.355 233.085H139.01C139.533 224.678 140.475 216.288 141.853 207.969H3.66275C2.26742 216.288 1.30812 224.66 0.802316 233.085H0.645341C0.578885 234.089 0.538175 235.095 0.52325 236.102C0.505808 236.835 0.488366 237.567 0.436041 238.3C0.411293 238.864 0.376404 239.428 0.331391 239.992C0.277183 240.613 0.236477 241.235 0.2093 241.858H0.31395L0.191858 244.509C0.0750521 246.35 0.0110731 248.194 0 250.038C0 255.741 0.261625 261.375 0.645341 266.991H499.355C499.738 261.375 500 255.741 500 250.038C500 244.335 499.738 238.701 499.355 233.085ZM88.2025 439.053H226.428C237.59 448.472 249.555 456.879 262.2 464.204H376.112C337.823 486.478 294.305 498.185 250.009 498.128C212.086 498.149 174.655 489.549 140.545 472.977H140.318C140.072 472.848 139.828 472.714 139.586 472.576C138.531 472.057 137.49 471.51 136.464 470.937L135.033 470.187C131.399 468.339 127.811 466.402 124.272 464.379L123.871 464.169H123.975C111.342 456.855 99.3726 448.451 88.2025 439.053ZM165.173 362.031H26.9474C31.4473 370.682 36.4531 379.071 41.9472 387.147H41.6681C42.2263 387.967 42.8018 388.717 43.3948 389.502C43.8658 390.112 44.3367 390.722 44.7902 391.368C45.2437 392.013 45.6797 392.693 46.1332 393.374C46.6913 394.246 47.2669 395.118 47.8599 395.92H48.139C54.5401 404.746 61.5167 413.135 69.0166 421.054H430.948C441.035 410.569 450.186 399.224 458.297 387.147H180.137C174.656 379.079 169.658 370.692 165.173 362.031ZM2.5116 284.991H140.754C142.01 293.45 143.719 301.84 145.865 310.107H492.605C489.694 321.666 485.945 332.998 481.39 344.014H18.6277C15.2963 335.816 12.401 327.409 9.97663 318.898H9.8371C9.6278 318.218 9.48826 317.537 9.31385 316.857L8.8778 315.113C8.6786 314.401 8.46928 313.691 8.2499 312.985C7.94563 312.035 7.67223 311.075 7.43015 310.107H7.60456C5.47668 301.84 3.7674 293.45 2.5116 284.991Z" fill="white"/>
</svg>
