<svg width="500" height="500" viewBox="0 0 500 500" fill="none" xmlns="http://www.w3.org/2000/svg">
  <mask id="mask0_640_259" style="mask-type:luminance" maskUnits="userSpaceOnUse" x="75" y="85"
    width="350" height="350">
    <path d="M425 85H75V435H425V85Z" fill="white" />
  </mask>
  <g mask="url(#mask0_640_259)">
    <path
      d="M116.32 318.592V413.589C116.32 419.436 121.27 421.864 122.809 422.415C124.349 423.076 129.518 424.511 134.137 420.208L206.002 351.147C212.122 345.267 218.029 339.085 222.467 331.851C224.556 328.451 225.422 326.535 225.422 326.535C229.822 317.599 229.822 308.993 225.531 300.386C219.155 287.588 202.876 274.568 178.349 262.211L136.447 285.602C124.019 292.663 116.32 305.13 116.32 318.592Z"
      fill="#00378A" />
    <path
      d="M75 107.303V206.934C75 219.402 83.3588 230.435 95.237 233.966C135.71 245.661 206.208 270.817 223.256 307.78C225.454 312.634 226.774 317.378 227.217 322.342C238.544 301.71 243.713 277.988 241.294 253.936C237.993 219.843 219.955 188.839 191.801 169.09L91.3875 98.8076C89.6276 97.4836 87.538 96.8215 85.4484 96.8215C83.6885 96.8215 82.1488 97.1525 80.4991 98.0352C77.1995 99.9109 75 103.331 75 107.303Z"
      fill="#2E4DFF" />
    <path
      d="M383.613 318.592V413.589C383.613 419.436 378.664 421.864 377.122 422.415C375.584 423.076 370.413 424.511 365.795 420.208L292.258 349.541C287.252 344.728 282.472 339.64 278.701 333.811C275.715 329.195 274.511 326.535 274.511 326.535C270.111 317.599 270.111 308.993 274.398 300.386C280.778 287.588 297.058 274.568 321.579 262.211L363.485 285.602C376.024 292.663 383.613 305.13 383.613 318.592Z"
      fill="#00378A" />
    <path
      d="M425 107.295V206.926C425 219.394 416.64 230.427 404.762 233.958C364.289 245.653 293.792 270.809 276.744 307.771C274.543 312.625 273.222 317.369 272.783 322.335C261.456 301.702 256.287 277.981 258.706 253.928C262.003 219.835 280.041 188.831 308.199 169.082L408.614 98.7995C410.373 97.4755 412.462 96.8135 414.551 96.8135C416.309 96.8135 417.852 97.1445 419.499 98.0271C422.8 99.9028 425 103.323 425 107.295Z"
      fill="#2E4DFF" />
  </g>
</svg>
  