<svg width="500" height="500" viewBox="0 0 500 500" fill="none" xmlns="http://www.w3.org/2000/svg">
<path d="M252.016 0.00668212C112.628 -1.00339 -1.00338 112.63 0.00668201 252.02C1.01674 387.875 112.123 498.478 247.976 499.993C387.869 501.003 501.5 387.37 499.985 247.98C498.975 112.125 387.869 1.01676 252.016 0.00668212Z" fill="#2081E2"/>
<path d="M177.271 128.286C192.927 147.982 202.018 172.729 202.018 200.001C202.018 223.233 194.947 244.949 183.332 263.131H99.4971L177.271 128.286Z" fill="white"/>
<path d="M433.322 292.928C433.322 293.938 432.816 294.948 431.806 295.453C426.251 297.978 407.565 306.564 399.485 317.675C379.283 345.452 364.133 389.895 329.791 389.895H185.857C134.85 389.895 92.4272 349.492 92.9322 295.958C92.9322 294.443 93.9423 293.433 95.4573 293.433H163.131C165.656 293.433 167.171 295.453 167.171 297.473V310.604C167.171 317.675 172.727 323.23 179.797 323.23H231.31V293.433H195.958C216.159 267.676 228.28 235.354 228.28 200.001C228.28 160.608 213.129 124.751 188.383 97.9838C203.533 99.4989 217.674 102.529 230.805 106.569V97.9838C230.805 89.3982 237.875 82.3276 246.461 82.3276C255.046 82.3276 262.117 89.3982 262.117 97.9838V118.185C310.095 140.407 341.911 177.78 341.911 220.203C341.911 244.95 331.306 268.181 312.62 287.373C309.084 290.908 304.034 292.928 298.984 292.928H262.622V322.725H308.074C317.67 322.725 335.346 304.039 343.931 292.928C343.931 292.928 344.436 292.423 345.447 291.918C346.457 291.413 429.281 272.727 429.281 272.727C430.796 272.222 432.816 273.737 432.816 275.252L433.322 292.928Z" fill="white"/>
</svg>
