<svg width="500" height="500" viewBox="0 0 500 500" fill="none" xmlns="http://www.w3.org/2000/svg">
  <path d="M319.602 390.59C358.043 390.59 389.204 326.938 389.204 248.42C389.204 169.902 358.043 106.25 319.602 106.25C281.162 106.25 250 169.902 250 248.42C250 326.938 281.162 390.59 319.602 390.59Z" fill="#BCFA26"/>
  <path d="M215.963 393.75C235.183 393.75 250.764 329.391 250.764 250C250.764 170.609 235.183 106.25 215.963 106.25C196.743 106.25 181.162 170.609 181.162 250C181.162 329.391 196.743 393.75 215.963 393.75Z" fill="#BCFA26"/>
  <path d="M163.573 390.59C173.289 390.59 181.165 326.938 181.165 248.42C181.165 169.902 173.289 106.25 163.573 106.25C153.858 106.25 145.981 169.902 145.981 248.42C145.981 326.938 153.858 390.59 163.573 390.59Z" fill="#BCFA26"/>
  <path d="M136.8 390.59C141.869 390.59 145.979 326.938 145.979 248.42C145.979 169.902 141.869 106.25 136.8 106.25C131.731 106.25 127.622 169.902 127.622 248.42C127.622 326.938 131.731 390.59 136.8 390.59Z" fill="#BCFA26"/>
  <path d="M123.032 390.59C125.566 390.59 127.621 326.938 127.621 248.42C127.621 169.902 125.566 106.25 123.032 106.25C120.497 106.25 118.442 169.902 118.442 248.42C118.442 326.938 120.497 390.59 123.032 390.59Z" fill="#BCFA26"/>
  <path d="M250 271.857C370.812 271.857 468.75 261.015 468.75 247.641C468.75 234.267 370.812 223.425 250 223.425C129.188 223.425 31.25 234.267 31.25 247.641C31.25 261.015 129.188 271.857 250 271.857Z" fill="#BCFA26"/>
</svg>
