<svg width="500" height="500" viewBox="0 0 500 500" fill="none" xmlns="http://www.w3.org/2000/svg">
  <mask id="mask0_642_108" style="mask-type:alpha" maskUnits="userSpaceOnUse" x="96" y="50"
    width="348" height="400">
    <rect x="101.057" y="100" width="47.191" height="47.191" rx="23.5955" fill="#D9D9D9" />
    <rect x="153.865" y="157.864" width="26.9663" height="26.9663" rx="13.4831" fill="#D9D9D9" />
    <rect x="188.135" y="197.753" width="15.7303" height="15.7303" rx="7.86516" fill="#D9D9D9" />
    <rect x="202.741" y="186.518" width="15.7303" height="15.7303" rx="7.86516" fill="#D9D9D9" />
    <rect x="222.966" y="180.899" width="15.7303" height="15.7303" rx="7.86516" fill="#D9D9D9" />
    <rect x="241.505" y="180.899" width="15.7303" height="15.7303" rx="7.86516" fill="#D9D9D9" />
    <rect x="259.483" y="186.518" width="15.7303" height="15.7303" rx="7.86516" fill="#D9D9D9" />
    <rect x="273.528" y="196.628" width="15.7303" height="15.7303" rx="7.86516" fill="#D9D9D9" />
    <rect x="284.764" y="212.359" width="15.7303" height="15.7303" rx="7.86516" fill="#D9D9D9" />
    <rect x="291.505" y="232.022" width="15.7303" height="15.7303" rx="7.86516" fill="#D9D9D9" />
    <rect x="291.505" y="251.123" width="15.7303" height="15.7303" rx="7.86516" fill="#D9D9D9" />
    <rect x="284.764" y="267.978" width="15.7303" height="15.7303" rx="7.86516" fill="#D9D9D9" />
    <rect x="274.651" y="283.707" width="15.7303" height="15.7303" rx="7.86516" fill="#D9D9D9" />
    <rect x="258.921" y="296.066" width="15.7303" height="15.7303" rx="7.86516" fill="#D9D9D9" />
    <rect x="243.191" y="302.246" width="15.7303" height="15.7303" rx="7.86516" fill="#D9D9D9" />
    <rect x="223.528" y="302.246" width="15.7303" height="15.7303" rx="7.86516" fill="#D9D9D9" />
    <rect x="203.865" y="297.19" width="15.7303" height="15.7303" rx="7.86516" fill="#D9D9D9" />
    <rect x="188.696" y="285.393" width="15.7303" height="15.7303" rx="7.86516" fill="#D9D9D9" />
    <rect x="182.517" y="136.518" width="26.9663" height="26.9663" rx="13.4831" fill="#D9D9D9" />
    <rect x="214.54" y="125.281" width="26.9663" height="26.9663" rx="13.4831" fill="#D9D9D9" />
    <rect x="250.494" y="125.281" width="26.9663" height="26.9663" rx="13.4831" fill="#D9D9D9" />
    <rect x="282.517" y="136.518" width="26.9663" height="26.9663" rx="13.4831" fill="#D9D9D9" />
    <rect x="310.606" y="156.741" width="26.9663" height="26.9663" rx="13.4831" fill="#D9D9D9" />
    <rect x="330.832" y="184.831" width="26.9663" height="26.9663" rx="13.4831" fill="#D9D9D9" />
    <rect x="341.505" y="218.539" width="26.9663" height="26.9663" rx="13.4831" fill="#D9D9D9" />
    <rect x="341.505" y="253.371" width="26.9663" height="26.9663" rx="13.4831" fill="#D9D9D9" />
    <rect x="331.393" y="287.079" width="26.9663" height="26.9663" rx="13.4831" fill="#D9D9D9" />
    <rect x="310.606" y="315.168" width="26.9663" height="26.9663" rx="13.4831" fill="#D9D9D9" />
    <rect x="283.641" y="335.393" width="26.9663" height="26.9663" rx="13.4831" fill="#D9D9D9" />
    <rect x="250.494" y="346.066" width="26.9663" height="26.9663" rx="13.4831" fill="#D9D9D9" />
    <rect x="214.54" y="347.19" width="26.9663" height="26.9663" rx="13.4831" fill="#D9D9D9" />
    <rect x="183.079" y="335.955" width="26.9663" height="26.9663" rx="13.4831" fill="#D9D9D9" />
    <rect x="154.427" y="315.168" width="26.9663" height="26.9663" rx="13.4831" fill="#D9D9D9" />
    <rect x="145.438" y="69.1006" width="47.191" height="47.191" rx="23.5955" fill="#D9D9D9" />
    <rect x="197.123" y="50" width="47.191" height="47.191" rx="23.5955" fill="#D9D9D9" />
    <rect x="252.741" y="52.2461" width="47.191" height="47.191" rx="23.5955" fill="#D9D9D9" />
    <rect x="303.865" y="69.6631" width="47.191" height="47.191" rx="23.5955" fill="#D9D9D9" />
    <rect x="349.371" y="104.495" width="47.191" height="47.191" rx="23.5955" fill="#D9D9D9" />
    <rect x="380.269" y="150" width="47.191" height="47.191" rx="23.5955" fill="#D9D9D9" />
    <rect x="396.562" y="203.371" width="47.191" height="47.191" rx="23.5955" fill="#D9D9D9" />
    <rect x="395.438" y="258.427" width="47.191" height="47.191" rx="23.5955" fill="#D9D9D9" />
    <rect x="378.022" y="311.798" width="47.191" height="47.191" rx="23.5955" fill="#D9D9D9" />
    <rect x="344.314" y="356.741" width="47.191" height="47.191" rx="23.5955" fill="#D9D9D9" />
    <rect x="299.371" y="386.517" width="47.191" height="47.191" rx="23.5955" fill="#D9D9D9" />
    <rect x="248.247" y="402.809" width="47.191" height="47.191" rx="23.5955" fill="#D9D9D9" />
    <rect x="192.067" y="402.809" width="47.191" height="47.191" rx="23.5955" fill="#D9D9D9" />
    <rect x="140.943" y="384.269" width="47.191" height="47.191" rx="23.5955" fill="#D9D9D9" />
    <rect x="96" y="352.246" width="47.191" height="47.191" rx="23.5955" fill="#D9D9D9" />
  </mask>
  <g mask="url(#mask0_642_108)">
    <rect x="96" y="50" width="347.753" height="404.494" fill="url(#paint0_linear_642_108)" />
  </g>
  <defs>
    <linearGradient id="paint0_linear_642_108" x1="94.8764" y1="245.505" x2="445.438" y2="246.067"
      gradientUnits="userSpaceOnUse">
      <stop stop-color="#FB42F4" />
      <stop offset="0.205115" stop-color="#E53DF1" />
      <stop offset="0.508004" stop-color="#C135ED" />
      <stop offset="0.796459" stop-color="#9B2DE9" />
      <stop offset="1" stop-color="#8428E6" />
    </linearGradient>
  </defs>
</svg>
  