<svg width="500" height="500" viewBox="0 0 500 500" fill="none" xmlns="http://www.w3.org/2000/svg">
<rect width="500" height="500" rx="250" fill="#280C49"/>
<path d="M371.387 100.017H109V138.429H352.172V237.676H197.043C186.439 237.676 177.83 246.269 177.83 256.89V332.817H216.259V276.104H371.387C381.992 276.104 390.601 267.511 390.601 256.89V119.214C390.601 108.61 382.008 100 371.387 100V100.017Z" fill="white"/>
<path d="M147.429 361.555H246.66V306.521H285.089V380.786C285.089 391.406 276.478 400 265.873 400H128.214C117.593 400 109 391.39 109 380.786V188.059C109 177.438 117.609 168.845 128.214 168.845H321.771V207.257H147.429V361.555Z" fill="white"/>
<path d="M371.387 100.017H109V138.429H352.172V237.676H197.043C186.439 237.676 177.83 246.269 177.83 256.89V332.817H216.259V276.104H371.387C381.992 276.104 390.601 267.511 390.601 256.89V119.214C390.601 108.61 382.008 100 371.387 100V100.017Z" fill="white"/>
<path d="M147.429 361.555H246.66V306.521H285.089V380.786C285.089 391.406 276.478 400 265.873 400H128.214C117.593 400 109 391.39 109 380.786V188.059C109 177.438 117.609 168.845 128.214 168.845H321.771V207.257H147.429V361.555Z" fill="white"/>
</svg>
