<svg width="500" height="500" viewBox="0 0 500 500" fill="none" xmlns="http://www.w3.org/2000/svg">
<rect width="500" height="500" rx="250" fill="#EFEDFE"/>
<mask id="mask0_626_60" style="mask-type:luminance" maskUnits="userSpaceOnUse" x="50" y="50" width="400" height="400">
<path d="M450 50H50V450H450V50Z" fill="white"/>
</mask>
<g mask="url(#mask0_626_60)">
<path opacity="0.5" fill-rule="evenodd" clip-rule="evenodd" d="M318.061 424.382C300.926 437.723 281.38 448.64 256.927 450.119C252.527 450.385 248.114 450.385 243.714 450.119C219.26 448.64 199.714 437.723 182.579 424.382C166.664 411.99 149.194 394.517 129.317 374.639C128.766 374.087 128.213 373.535 127.659 372.98C127.104 372.426 126.551 371.873 126 371.322C106.121 351.446 88.6483 333.975 76.2568 318.06C62.9154 300.925 51.9991 281.379 50.5199 256.926C50.2538 252.526 50.2538 248.113 50.5199 243.713C51.9991 219.26 62.9154 199.715 76.2568 182.579C88.6483 166.664 106.121 149.194 126 129.317C126.551 128.766 127.104 128.214 127.659 127.659C128.213 127.104 128.766 126.552 129.317 126.001C149.194 106.121 166.664 88.6488 182.579 76.2573C199.714 62.916 219.26 51.9998 243.714 50.5207C248.114 50.2545 252.527 50.2545 256.927 50.5207C281.38 51.9998 300.926 62.916 318.061 76.2573C333.976 88.6488 351.447 106.122 371.324 126.001C371.874 126.552 372.427 127.104 372.981 127.659C373.536 128.214 374.089 128.766 374.64 129.317C394.52 149.194 411.993 166.664 424.384 182.579C437.726 199.715 448.641 219.26 450.12 243.713C450.387 248.113 450.387 252.526 450.12 256.926C448.641 281.379 437.726 300.925 424.384 318.06C411.993 333.975 394.52 351.446 374.64 371.322C374.089 371.873 373.536 372.426 372.981 372.98C372.427 373.535 371.874 374.087 371.324 374.639C351.447 394.517 333.976 411.99 318.061 424.382ZM90.4783 254.509C92.0671 280.776 113.367 302.076 155.965 344.675C198.564 387.273 219.863 408.572 246.131 410.16C248.921 410.329 251.72 410.329 254.51 410.16C280.777 408.572 302.077 387.273 344.676 344.675C387.274 302.076 408.573 280.776 410.163 254.509C410.331 251.719 410.331 248.92 410.163 246.13C408.573 219.863 387.274 198.563 344.676 155.965C302.077 113.367 280.777 92.0676 254.51 90.4788C251.72 90.3101 248.921 90.3101 246.131 90.4788C219.863 92.0676 198.564 113.367 155.965 155.965C113.367 198.563 92.0671 219.863 90.4783 246.13C90.3096 248.92 90.3096 251.719 90.4783 254.509Z" fill="#4F40EF"/>
<path d="M143.568 250.322C143.568 245.962 146.654 242.232 150.895 241.217C172.406 236.073 189.346 228.022 203.569 215.422C207.754 211.714 211.711 207.757 215.418 203.572C228.018 189.35 236.069 172.41 241.214 150.899C242.228 146.658 245.958 143.572 250.319 143.572C254.679 143.572 258.409 146.658 259.424 150.899C264.568 172.41 272.619 189.35 285.219 203.572C288.926 207.757 292.884 211.714 297.069 215.422C311.292 228.022 328.232 236.073 349.744 241.217C353.984 242.232 357.069 245.962 357.069 250.322C357.069 254.683 353.984 258.413 349.744 259.427C328.232 264.572 311.292 272.623 297.069 285.223C292.884 288.93 288.926 292.887 285.219 297.072C272.619 311.294 264.568 328.234 259.424 349.746C258.409 353.986 254.679 357.072 250.319 357.072C245.958 357.072 242.228 353.986 241.214 349.746C236.069 328.234 228.018 311.294 215.418 297.072C211.711 292.887 207.754 288.93 203.569 285.223C189.346 272.623 172.406 264.572 150.895 259.427C146.654 258.413 143.568 254.683 143.568 250.322Z" fill="#4F40EF"/>
</g>
</svg>
