<svg width="500" height="500" viewBox="0 0 500 500" fill="none" xmlns="http://www.w3.org/2000/svg">
<rect width="500" height="500" rx="250" fill="#0FFF7F"/>
<path d="M421.297 249.88H379.222C366.655 249.88 356.474 260.378 356.474 273.331V336.281C356.474 349.234 346.291 359.73 333.725 359.73H166.334C153.767 359.73 143.586 370.226 143.586 383.179V426.551C143.586 439.504 153.767 450 166.334 450H343.413C355.98 450 366.017 439.504 366.017 426.551V391.754C366.017 378.801 376.2 369.611 388.766 369.611H421.289C433.855 369.611 444.039 359.115 444.039 346.162V273.058C444.039 260.105 433.864 249.88 421.297 249.88Z" fill="black"/>
<path d="M143.573 163.719C143.573 150.766 153.756 140.27 166.322 140.27H333.611C346.177 140.27 356.359 129.774 356.359 116.821V73.4494C356.359 60.4961 346.177 50 333.611 50H156.624C144.058 50 133.876 60.4961 133.876 73.4494V106.869C133.876 119.822 123.693 130.318 111.127 130.318H78.7489C66.1824 130.318 56 140.814 56 153.767V226.951C56 239.904 66.225 249.873 78.7915 249.873H120.867C133.433 249.873 143.616 239.377 143.616 226.424L143.573 163.719Z" fill="black"/>
<path d="M230.21 204.292H270.626C283.796 204.292 294.482 215.313 294.482 228.881V270.542C294.482 284.118 283.788 295.131 270.626 295.131H230.21C217.039 295.131 206.354 284.11 206.354 270.542V228.881C206.354 215.305 217.049 204.292 230.21 204.292Z" fill="black"/>
</svg>
