<svg width="500" height="500" viewBox="0 0 500 500" fill="none" xmlns="http://www.w3.org/2000/svg">
<path fill-rule="evenodd" clip-rule="evenodd" d="M215.41 209.055C214.662 211.939 213.358 214.646 211.571 217.025C208.243 221.363 203.839 224.745 198.801 226.835C194.269 228.796 189.469 230.065 184.563 230.596C183.554 230.725 182.509 230.804 181.495 230.881L181.33 230.894C178.223 231.013 175.235 232.128 172.804 234.075C170.373 236.024 168.626 238.703 167.82 241.719C167.451 243.22 167.176 244.743 166.999 246.279C166.716 248.595 166.571 250.967 166.414 253.532C166.301 255.372 166.181 257.313 166.001 259.404C164.946 267.925 162.492 276.21 158.741 283.924C157.975 285.545 157.194 287.117 156.425 288.661C152.312 296.936 148.596 304.411 149.662 314.423C150.497 322.137 154.431 327.305 159.657 332.637C162.14 335.187 165.431 337.366 168.848 339.628C178.41 345.958 188.953 352.938 185.479 370.524C182.637 384.773 159.119 399.725 126.063 404.948C129.269 404.459 122.207 392.354 121.423 391.01L121.376 390.929C120.464 389.495 119.531 388.083 118.599 386.673C115.909 382.6 113.229 378.549 111.139 374.056C105.617 362.325 103.057 348.752 105.319 335.897C107.369 324.263 115.027 314.969 122.398 306.02C123.601 304.561 124.794 303.113 125.956 301.664C135.816 289.364 146.161 273.247 148.45 257.281C148.643 255.893 148.816 254.381 148.997 252.789C149.322 249.94 149.675 246.839 150.229 243.749C151.05 238.413 152.715 233.241 155.159 228.431C156.826 225.278 159.022 222.435 161.651 220.029C163.021 218.751 163.925 217.049 164.219 215.194C164.511 213.34 164.176 211.44 163.267 209.799L110.573 114.592L186.26 208.419C187.123 209.506 188.212 210.39 189.452 211.006C190.692 211.622 192.052 211.957 193.434 211.987C194.818 212.017 196.19 211.741 197.456 211.177C198.721 210.615 199.847 209.779 200.754 208.73C201.713 207.607 202.257 206.186 202.293 204.706C202.331 203.227 201.858 201.781 200.956 200.611C197.437 196.093 193.774 191.515 190.129 186.956C188.654 185.112 187.18 183.268 185.722 181.437L166.675 157.758L128.447 110.478L86 60L133.351 106.243L174.043 151.438L194.343 174.089C196.208 176.199 198.073 178.291 199.937 180.381C204.807 185.841 209.677 191.301 214.547 197.093L215.652 198.446L215.895 200.543C216.222 203.387 216.058 206.267 215.41 209.055ZM410.064 240.874L410.144 240.997C410.13 230.901 403.908 214.245 391.314 198.223L391.017 197.831C387.137 193.015 382.91 188.492 378.368 184.299C377.52 183.474 376.605 182.662 375.675 181.851C369.856 176.753 363.496 172.314 356.709 168.617L356.224 168.373C334.901 156.709 307.154 150.701 272.939 157.467C268.344 151.863 263.395 146.561 258.123 141.595C250.048 133.865 240.542 127.802 230.146 123.747C219.842 119.958 208.807 118.606 197.898 119.796C208.413 120.747 218.656 123.685 228.085 128.456C237.191 133.357 245.393 139.793 252.33 147.481C259.363 155.33 265.973 163.55 272.132 172.108L273.677 174.129C279.703 182.013 285.838 190.04 293.481 197.182C297.688 201.158 302.382 204.582 307.45 207.371C308.796 208.061 310.157 208.71 311.491 209.279C312.824 209.847 314.076 210.375 315.424 210.862C318.024 211.876 320.717 212.716 323.411 213.487C334.188 216.572 345.219 217.681 355.996 218.278C357.494 218.356 358.991 218.43 360.481 218.504C364.329 218.695 368.146 218.884 371.903 219.156C377.051 219.464 382.157 220.27 387.151 221.565C394.652 223.53 401.256 228.019 405.861 234.284C407.426 236.372 408.831 238.574 410.064 240.874ZM378.521 184.316C377.98 183.813 377.428 183.316 376.88 182.819C376.527 182.501 376.175 182.183 375.827 181.866C376.096 182.112 376.365 182.361 376.633 182.611C377.266 183.197 377.897 183.783 378.521 184.316ZM365.052 283.969C330.399 269.843 294.151 255.067 299.547 213.596C311.117 226.005 329.279 228.608 349.032 231.439C366.951 234.006 386.178 236.762 402.984 247.194C442.638 271.795 436.847 319.587 423.377 337.178C424.592 308.238 395.435 296.354 365.052 283.969ZM225.441 263.212C234.587 262.332 254.079 257.556 245.364 242.143C243.489 239.008 240.771 236.468 237.524 234.813C234.276 233.159 230.63 232.459 227.003 232.793C223.325 233.19 219.855 234.714 217.067 237.159C214.28 239.604 212.307 242.85 211.419 246.459C208.712 256.541 211.581 264.564 225.441 263.212ZM222.812 141.269C217.075 134.611 208.171 131.12 199.442 129.849C199.116 132.032 198.909 134.232 198.823 136.439C198.432 154.61 204.857 174.569 217.29 188.44C221.267 192.923 226.063 196.597 231.42 199.265C234.517 200.78 242.735 204.541 245.779 201.158C246.01 200.848 246.156 200.482 246.201 200.097C246.246 199.712 246.189 199.322 246.035 198.967C245.53 197.518 244.556 196.203 243.589 194.898C242.902 193.973 242.22 193.053 241.711 192.092C241.196 191.125 240.645 190.18 240.095 189.237C239.061 187.465 238.03 185.696 237.239 183.771C235.151 178.732 234.065 173.374 232.981 168.033C232.765 166.965 232.547 165.892 232.322 164.827C230.666 156.587 228.551 147.926 222.812 141.269ZM345.409 286.229C336.508 311.183 350.864 332.259 365.137 353.212C381.101 376.649 396.96 399.93 380.04 428.308C412.92 414.669 428.532 373.466 414.886 340.774C406.289 320.097 385.566 308.886 366.331 298.483C358.868 294.446 351.628 290.53 345.409 286.229ZM249.193 345.796C243.234 348.238 237.615 351.445 232.476 355.336C244.161 351.078 256.426 348.647 268.845 348.123C271.095 347.99 273.362 347.885 275.647 347.778C279.594 347.596 283.609 347.411 287.703 347.068C294.415 346.611 301.035 345.245 307.382 343.008C314.035 340.671 320.089 336.881 325.109 331.913C330.181 326.784 333.739 320.344 335.386 313.307C336.836 306.659 336.633 299.755 334.794 293.206C332.954 286.656 329.535 280.663 324.84 275.757C327.105 281.53 328.499 287.609 328.975 293.795C329.385 299.554 328.605 305.335 326.685 310.776C324.81 315.934 321.745 320.572 317.741 324.308C313.605 328.082 308.816 331.062 303.611 333.103C296.377 336.031 288.197 337.228 279.677 338.476C275.791 339.044 271.833 339.624 267.862 340.383C261.475 341.558 255.22 343.372 249.193 345.796ZM352.488 448.814L351.917 449.275C350.41 450.491 348.88 451.73 347.232 452.841C345.13 454.231 342.929 455.462 340.645 456.521C335.889 458.853 330.661 460.043 325.37 459.999C311.039 459.729 300.908 449.012 294.982 436.901C293.428 433.727 292.06 430.455 290.691 427.182C288.499 421.944 286.308 416.707 283.357 411.868C276.502 400.624 264.769 391.571 251.03 393.249C245.426 393.953 240.172 396.483 237.061 401.368C228.871 414.128 240.631 432.003 255.623 429.472C256.898 429.277 258.145 428.932 259.34 428.445C260.532 427.935 261.643 427.256 262.64 426.428C264.735 424.676 266.313 422.384 267.207 419.798C268.192 417.101 268.41 414.182 267.84 411.368C267.225 408.426 265.495 405.84 263.018 404.155C265.899 405.51 268.144 407.937 269.282 410.921C270.46 413.993 270.764 417.333 270.157 420.569C269.568 423.94 268.089 427.09 265.873 429.69C264.697 431.026 263.335 432.188 261.833 433.14C260.343 434.08 258.746 434.838 257.078 435.4C253.694 436.561 250.093 436.936 246.544 436.496C241.561 435.782 236.862 433.735 232.94 430.568C232.215 429.993 231.52 429.391 230.846 428.766C228.177 426.453 225.755 423.864 223.618 421.042C222.66 419.982 221.686 418.936 220.668 417.931C215.866 412.868 210.199 408.712 203.938 405.658C199.621 403.753 195.102 402.345 190.469 401.463C188.138 400.975 185.782 400.624 183.424 400.327C183.168 400.3 182.677 400.214 182.064 400.108C180.096 399.764 176.89 399.205 176.325 399.73C183.612 392.993 191.553 387.009 200.032 381.869C208.738 376.68 218.086 372.662 227.835 369.921C237.941 367.064 248.514 366.249 258.936 367.526C264.302 368.174 269.557 369.539 274.562 371.585C279.806 373.69 284.646 376.694 288.867 380.463C293.043 384.415 296.42 389.144 298.807 394.385C300.963 399.294 302.571 404.427 303.602 409.689C304.155 412.522 304.572 415.633 305.002 418.854C306.966 433.533 309.235 450.471 326.058 453.422C327.126 453.631 328.205 453.785 329.29 453.884L332.644 453.964C334.95 453.799 337.241 453.469 339.5 452.976C344.18 451.871 348.742 450.307 353.118 448.309L352.488 448.814ZM224.503 422.029C224.906 422.492 225.313 422.949 225.726 423.403C225.557 423.214 225.39 423.025 225.221 422.836C224.982 422.567 224.743 422.298 224.503 422.029Z" fill="#E6368C"/>
</svg>
