<svg width="500" height="500" viewBox="0 0 500 500" fill="none" xmlns="http://www.w3.org/2000/svg">
<path fill-rule="evenodd" clip-rule="evenodd" d="M196.762 186.319C195.828 189.923 194.198 193.308 191.963 196.281C187.804 201.703 182.299 205.931 176.001 208.544C170.337 210.996 164.336 212.581 158.204 213.246C156.943 213.406 155.636 213.505 154.369 213.602L154.163 213.617C150.278 213.766 146.544 215.16 143.505 217.594C140.466 220.03 138.283 223.379 137.275 227.149C136.814 229.025 136.47 230.929 136.248 232.849C135.895 235.744 135.714 238.708 135.517 241.915C135.377 244.215 135.227 246.641 135.002 249.256C133.683 259.906 130.616 270.262 125.926 279.904C124.969 281.931 123.992 283.897 123.031 285.826C117.89 296.17 113.245 305.514 114.578 318.028C115.622 327.671 120.539 334.132 127.072 340.796C130.175 343.984 134.289 346.707 138.559 349.535C150.513 357.448 163.691 366.173 159.349 388.155C155.796 405.966 126.398 424.657 85.0789 431.185C89.0868 430.574 80.2585 415.443 79.2788 413.763L79.2195 413.661C78.0804 411.869 76.9132 410.103 75.7491 408.341C72.3865 403.25 69.0365 398.186 66.4239 392.57C59.5207 377.906 56.3206 360.94 59.1488 344.871C61.7114 330.329 71.2834 318.711 80.4976 307.525C82.0008 305.702 83.493 303.891 84.9445 302.08C97.2697 286.705 110.201 266.559 113.062 246.601C113.304 244.866 113.52 242.976 113.747 240.987C114.153 237.426 114.593 233.549 115.286 229.686C116.312 223.016 118.394 216.552 121.448 210.539C123.533 206.597 126.278 203.044 129.564 200.036C131.277 198.439 132.406 196.311 132.773 193.992C133.139 191.675 132.72 189.3 131.584 187.248L65.7161 68.2401L160.325 185.523C161.404 186.883 162.765 187.987 164.315 188.758C165.865 189.528 167.565 189.947 169.293 189.984C171.022 190.022 172.738 189.676 174.319 188.972C175.901 188.269 177.309 187.223 178.443 185.912C179.641 184.509 180.321 182.733 180.366 180.883C180.413 179.034 179.823 177.226 178.694 175.764C174.296 170.117 169.718 164.393 165.161 158.695C163.318 156.39 161.475 154.085 159.652 151.796L135.844 122.197L88.0587 63.0979L35 0L94.1884 57.804L145.053 114.297L170.429 142.612C172.76 145.249 175.091 147.863 177.421 150.476C183.509 157.301 189.596 164.126 195.684 171.367L197.065 173.057L197.368 175.679C197.778 179.234 197.573 182.834 196.762 186.319ZM440.08 226.093L440.18 226.246C440.163 213.627 432.384 192.806 416.642 172.779L416.272 172.289C411.422 166.268 406.137 160.615 400.46 155.374C399.4 154.343 398.256 153.327 397.093 152.313C389.82 145.941 381.87 140.393 373.387 135.771L372.78 135.466C346.127 120.886 311.442 113.377 268.674 121.833C262.93 114.828 256.744 108.202 250.153 101.994C240.06 92.3311 228.178 84.7529 215.183 79.6841C202.303 74.9481 188.509 73.2574 174.873 74.7449C188.016 75.934 200.82 79.606 212.606 85.5701C223.989 91.6968 234.241 99.7406 242.913 109.352C251.703 119.163 259.966 129.438 267.665 140.135L269.596 142.662C277.129 152.516 284.798 162.549 294.351 171.478C299.61 176.448 305.478 180.728 311.812 184.214C313.495 185.076 315.197 185.887 316.864 186.598C318.529 187.309 320.095 187.969 321.78 188.578C325.03 189.845 328.397 190.895 331.764 191.859C345.235 195.716 359.024 197.102 372.494 197.847C374.368 197.945 376.238 198.037 378.101 198.13C382.912 198.369 387.682 198.605 392.379 198.945C398.814 199.33 405.197 200.338 411.439 201.956C420.816 204.413 429.07 210.024 434.827 217.855C436.783 220.464 438.539 223.218 440.08 226.093ZM400.651 155.395C399.975 154.767 399.285 154.145 398.6 153.524C398.159 153.126 397.718 152.729 397.284 152.332C397.62 152.64 397.956 152.951 398.292 153.263C399.082 153.996 399.871 154.729 400.651 155.395ZM383.815 279.961C340.499 262.304 295.189 243.834 301.934 191.995C316.397 207.506 339.099 210.76 363.79 214.299C386.188 217.508 410.223 220.952 431.23 233.993C480.798 264.743 473.559 324.483 456.721 346.473C458.24 310.297 421.794 295.442 383.815 279.961ZM209.301 254.015C220.734 252.915 245.099 246.945 234.205 227.679C231.861 223.76 228.464 220.585 224.405 218.516C220.345 216.449 215.787 215.574 211.254 215.991C206.656 216.488 202.318 218.393 198.834 221.449C195.349 224.505 192.884 228.563 191.774 233.074C188.39 245.676 191.976 255.706 209.301 254.015ZM206.015 101.586C198.843 93.264 187.713 88.8998 176.802 87.3108C176.394 90.0405 176.137 92.7905 176.029 95.5484C175.54 118.263 183.571 143.212 199.112 160.549C204.084 166.154 210.079 170.746 216.775 174.081C220.647 175.975 230.919 180.676 234.723 176.448C235.013 176.061 235.195 175.603 235.252 175.122C235.308 174.64 235.236 174.153 235.044 173.709C234.413 171.898 233.195 170.254 231.986 168.623C231.128 167.467 230.275 166.317 229.639 165.115C228.995 163.906 228.306 162.724 227.619 161.546C226.326 159.331 225.037 157.12 224.048 154.713C221.439 148.415 220.081 141.718 218.726 135.041C218.456 133.707 218.184 132.365 217.903 131.033C215.833 120.733 213.189 109.908 206.015 101.586ZM359.261 282.786C348.135 313.978 366.08 340.324 383.921 366.515C403.876 395.811 423.7 424.913 402.55 460.385C443.65 443.337 463.165 391.833 446.108 350.968C435.361 325.121 409.458 311.108 385.413 298.103C376.085 293.058 367.035 288.162 359.261 282.786ZM238.991 357.245C231.542 360.298 224.519 364.306 218.095 369.17C232.702 363.848 248.033 360.809 263.557 360.154C266.369 359.987 269.202 359.856 272.058 359.723C276.993 359.495 282.012 359.263 287.129 358.835C295.518 358.263 303.793 356.556 311.728 353.76C320.044 350.838 327.611 346.101 333.886 339.891C340.227 333.48 344.674 325.43 346.733 316.633C348.546 308.324 348.291 299.694 345.992 291.508C343.692 283.32 339.419 275.829 333.55 269.696C336.381 276.912 338.124 284.511 338.719 292.244C339.231 299.442 338.256 306.669 335.856 313.471C333.513 319.918 329.681 325.715 324.676 330.385C319.506 335.102 313.52 338.827 307.014 341.379C297.971 345.038 287.746 346.535 277.096 348.095C272.238 348.806 267.291 349.531 262.327 350.479C254.344 351.948 246.525 354.215 238.991 357.245ZM368.11 486.017L367.396 486.594C365.513 488.114 363.601 489.662 361.54 491.052C358.913 492.789 356.161 494.328 353.307 495.652C347.361 498.566 340.827 500.053 334.213 499.999C316.298 499.661 303.636 486.265 296.228 471.126C294.285 467.159 292.574 463.068 290.863 458.978C288.124 452.431 285.385 445.884 281.696 439.835C273.127 425.78 258.461 414.464 241.288 416.561C234.283 417.441 227.716 420.603 223.826 426.71C213.589 442.66 228.289 465.004 247.028 461.84C248.622 461.596 250.182 461.165 251.675 460.556C253.164 459.918 254.553 459.07 255.8 458.035C258.419 455.845 260.391 452.981 261.508 449.748C262.74 446.376 263.013 442.727 262.3 439.21C261.532 435.532 259.369 432.301 256.272 430.194C259.874 431.888 262.68 434.921 264.102 438.651C265.576 442.491 265.955 446.666 265.196 450.712C264.46 454.924 262.611 458.862 259.841 462.112C258.371 463.782 256.669 465.235 254.791 466.425C252.928 467.6 250.933 468.548 248.847 469.25C244.617 470.701 240.116 471.17 235.68 470.62C229.452 469.728 223.578 467.168 218.675 463.21C217.769 462.492 216.9 461.739 216.058 460.957C212.722 458.067 209.693 454.831 207.023 451.302C205.825 449.977 204.607 448.67 203.335 447.413C197.332 441.085 190.249 435.89 182.423 432.072C177.026 429.691 171.377 427.932 165.586 426.829C162.672 426.219 159.727 425.78 156.78 425.408C156.46 425.375 155.846 425.268 155.08 425.135C152.621 424.705 148.613 424.007 147.906 424.663C157.014 416.241 166.941 408.761 177.54 402.336C188.423 395.85 200.107 390.828 212.293 387.401C224.926 383.83 238.142 382.811 251.171 384.408C257.877 385.217 264.446 386.923 270.702 389.481C277.257 392.112 283.307 395.867 288.584 400.578C293.804 405.519 298.024 411.43 301.009 417.982C303.704 424.118 305.714 430.533 307.003 437.112C307.693 440.652 308.215 444.541 308.753 448.568C311.207 466.917 314.043 488.089 335.072 491.778C336.408 492.039 337.756 492.231 339.113 492.355L343.305 492.455C346.188 492.248 349.052 491.836 351.875 491.22C357.725 489.839 363.427 487.884 368.897 485.386L368.11 486.017ZM208.129 452.537C208.632 453.115 209.142 453.687 209.657 454.254C209.447 454.018 209.237 453.781 209.026 453.545C208.728 453.209 208.429 452.873 208.129 452.537Z" fill="#E6368C"/>
</svg>
