<svg width="500" height="500" viewBox="0 0 500 500" fill="none" xmlns="http://www.w3.org/2000/svg">
<rect width="500" height="500" rx="250" fill="white"/>
<path d="M250 0C111.958 0 0 111.959 0 250C0 388.042 111.958 500 250 500C388.041 500 500 388.042 500 250C500 111.959 388.041 0 250 0ZM220.413 118.66C188.248 130.207 182.475 143.711 182.475 167.01C182.475 171.134 182.783 176.289 183.093 181.752C183.402 187.01 183.712 192.371 183.712 196.495C183.712 221.34 172.577 235.568 146.392 244.227L129.176 249.897L146.392 255.568C172.475 264.124 183.712 278.453 183.712 303.299C183.712 307.32 183.402 312.784 183.093 318.042C182.783 323.506 182.475 328.66 182.475 332.784C182.475 356.186 188.248 369.691 220.413 381.134V413.299C152.99 400.104 139.176 375.98 139.176 341.547C139.176 338.763 139.485 333.918 139.691 328.867C140 323.402 140.31 317.63 140.31 314.021C140.31 280.619 125.877 266.908 90.5156 266.908H86.1857V232.681H90.5156C125.877 232.681 140.31 219.072 140.31 185.568C140.31 181.959 140 176.186 139.691 170.722C139.381 165.773 139.176 160.928 139.176 158.041C139.176 123.711 152.99 99.5877 220.413 86.3918V118.66ZM250 325.98C238.557 325.98 229.278 316.701 229.278 305.258C229.278 293.814 238.557 284.536 250 284.536C261.443 284.536 270.722 293.814 270.722 305.258C270.722 316.701 261.443 325.98 250 325.98ZM250 215.464C238.557 215.464 229.278 206.186 229.278 194.743C229.278 183.299 238.557 174.021 250 174.021C261.443 174.021 270.722 183.299 270.722 194.743C270.722 206.186 261.443 215.464 250 215.464ZM413.815 267.113H409.485C374.124 267.113 359.691 280.722 359.691 314.227C359.691 317.835 360 323.609 360.31 329.072C360.618 334.021 360.825 338.867 360.825 341.752C360.825 376.083 347.011 400.31 279.588 413.506V381.341C311.753 369.794 317.526 356.289 317.526 332.99C317.526 328.867 317.217 323.711 316.907 318.248C316.598 312.99 316.289 307.526 316.289 303.506C316.289 278.66 327.423 264.433 353.609 255.773L370.825 250.103L353.609 244.433C327.526 235.773 316.289 221.547 316.289 196.701C316.289 192.681 316.598 187.216 316.907 181.959C317.217 176.495 317.526 171.34 317.526 167.216C317.526 143.814 311.753 130.31 279.588 118.866V86.598C347.011 99.7939 360.825 123.917 360.825 158.248C360.825 161.031 360.516 165.876 360.31 170.928C360 176.391 359.691 182.165 359.691 185.773C359.691 219.175 374.124 232.887 409.485 232.887H413.815V267.113Z" fill="url(#paint0_linear_626_83)"/>
<defs>
<linearGradient id="paint0_linear_626_83" x1="-1.88469e-09" y1="277.778" x2="494.371" y2="277.974" gradientUnits="userSpaceOnUse">
<stop stop-color="#2C82FF"/>
<stop offset="1" stop-color="#12C6E3"/>
</linearGradient>
</defs>
</svg>
